<svg width="33" height="33" viewBox="0 0 33 33" fill="none" xmlns="http://www.w3.org/2000/svg">
<path fill-rule="evenodd" clip-rule="evenodd" d="M20.5691 31.0453C20.6206 31.0284 20.7122 31.0049 20.8155 30.9675C20.792 30.9805 20.6554 31.0258 20.5691 31.0453Z" fill="#195598"/>
<path fill-rule="evenodd" clip-rule="evenodd" d="M24.3093 29.7543C24.3782 29.713 24.5867 29.5725 24.5676 29.5928C24.4473 29.6696 24.3978 29.7028 24.3093 29.7543Z" fill="#195598"/>
<path fill-rule="evenodd" clip-rule="evenodd" d="M24.6763 29.5301C24.6928 29.5163 24.8572 29.4136 24.9335 29.364C24.9327 29.3666 24.8806 29.4008 24.8226 29.438C24.7647 29.4745 24.702 29.514 24.6763 29.5301Z" fill="#195598"/>
<path fill-rule="evenodd" clip-rule="evenodd" d="M25.6536 28.7898C25.7021 28.7494 25.8315 28.6458 25.8935 28.6001C25.8785 28.6154 25.725 28.7329 25.6536 28.7898Z" fill="#195598"/>
<path fill-rule="evenodd" clip-rule="evenodd" d="M26.1263 28.4867C26.2092 28.422 26.3415 28.3023 26.5265 28.1438C26.4628 28.2003 26.2765 28.3718 26.1263 28.4867Z" fill="#195598"/>
<path fill-rule="evenodd" clip-rule="evenodd" d="M27.0741 27.2837C27.1719 27.1958 27.3055 27.0465 27.4375 26.9093C27.5677 26.7701 27.6963 26.6423 27.757 26.571C27.6524 26.6919 27.5289 26.8122 27.4141 26.9367C27.2964 27.0586 27.1859 27.1842 27.0741 27.2837Z" fill="#195598"/>
<path fill-rule="evenodd" clip-rule="evenodd" d="M27.6508 26.8571C27.7656 26.7379 27.9134 26.5609 28.0728 26.3789C28.1513 26.2868 28.2358 26.1959 28.31 26.1015C28.3836 26.007 28.4546 25.9159 28.5202 25.8316C28.541 25.81 28.4455 25.9318 28.3359 26.0714C28.227 26.2116 28.0905 26.3585 28.054 26.4074C27.9878 26.4824 27.9375 26.5393 27.8839 26.5999C27.809 26.6899 27.7378 26.7727 27.6508 26.8571Z" fill="#195598"/>
<path fill-rule="evenodd" clip-rule="evenodd" d="M30.0201 23.5836C30.0131 23.5902 30.0251 23.5623 30.0773 23.4616C30.093 23.4333 30.0997 23.424 30.099 23.4299L30.0201 23.5836Z" fill="#195598"/>
<path fill-rule="evenodd" clip-rule="evenodd" d="M30.6976 22.0436C30.7467 21.9157 30.8243 21.7135 30.9053 21.5026C30.9791 21.2881 31.0553 21.0659 31.1104 20.9056C31.124 20.8628 31.1233 20.8597 31.1503 20.7797C31.2045 20.5862 31.3293 20.155 31.2102 20.5739C31.144 20.8355 31.0555 21.0605 30.9791 21.2962C30.9048 21.5331 30.8032 21.767 30.6976 22.0436Z" fill="#195598"/>
<path fill-rule="evenodd" clip-rule="evenodd" d="M30.8284 21.8784C30.8528 21.815 30.8906 21.7174 30.9383 21.5935C30.9293 21.6246 30.848 21.8323 30.8284 21.8784Z" fill="#195598"/>
<path fill-rule="evenodd" clip-rule="evenodd" d="M30.8276 21.4399C30.8405 21.3934 30.9138 21.1844 30.9507 21.073C30.925 21.1543 30.8606 21.3501 30.8276 21.4399Z" fill="#195598"/>
<path fill-rule="evenodd" clip-rule="evenodd" d="M30.928 21.5704C30.9637 21.4631 31.0368 21.2428 31.0796 21.1144C31.1212 21.0036 30.984 21.4154 30.928 21.5704Z" fill="#195598"/>
<path fill-rule="evenodd" clip-rule="evenodd" d="M31.0099 21.388C31.0337 21.3059 31.1154 21.0685 31.1747 20.8906C31.1378 21.0022 31.0633 21.2268 31.0099 21.388Z" fill="#195598"/>
<path fill-rule="evenodd" clip-rule="evenodd" d="M30.9329 21.0392C30.9338 21.0234 30.9884 20.8638 31.0262 20.7493C31.0216 20.7748 30.9656 20.9382 30.9329 21.0392Z" fill="#195598"/>
<path fill-rule="evenodd" clip-rule="evenodd" d="M31.0206 20.8714C31.0672 20.7389 31.1912 20.2738 31.2595 20.0457C31.1772 20.3357 31.1227 20.5587 31.0206 20.8714Z" fill="#195598"/>
<path fill-rule="evenodd" clip-rule="evenodd" d="M31.2023 20.8091C31.2588 20.5926 31.3514 20.2804 31.4035 20.0994C31.3463 20.3013 31.2672 20.5804 31.2023 20.8091Z" fill="#195598"/>
<path fill-rule="evenodd" clip-rule="evenodd" d="M31.3048 20.2419C31.3256 20.1602 31.3667 20.0228 31.3903 19.9041C31.4022 19.8826 31.3478 20.1027 31.3048 20.2419Z" fill="#195598"/>
<path fill-rule="evenodd" clip-rule="evenodd" d="M31.4121 19.8798C31.4323 19.7791 31.4542 19.6904 31.4892 19.5417C31.4839 19.5766 31.4348 19.7783 31.4121 19.8798Z" fill="#195598"/>
<path fill-rule="evenodd" clip-rule="evenodd" d="M31.5109 19.5179C31.5202 19.4709 31.5888 19.1538 31.5785 19.225C31.5631 19.3166 31.5601 19.3037 31.5587 19.3057C31.5359 19.4068 31.5375 19.3998 31.5109 19.5179Z" fill="#195598"/>
<path fill-rule="evenodd" clip-rule="evenodd" d="M31.5913 18.6089C31.4871 19.1767 31.5587 18.8192 31.5913 18.6089V18.6089Z" fill="#195598"/>
<path fill-rule="evenodd" clip-rule="evenodd" d="M31.6127 18.1355C31.63 17.9596 31.6608 17.7877 31.6766 17.5811C31.6731 17.7117 31.6223 18.0486 31.6127 18.1355Z" fill="#195598"/>
<path fill-rule="evenodd" clip-rule="evenodd" d="M31.6227 18.0002C31.6111 18.0613 31.6549 17.7189 31.6499 17.7878C31.6408 17.8583 31.6318 17.9289 31.6227 18.0002Z" fill="#195598"/>
<path fill-rule="evenodd" clip-rule="evenodd" d="M31.605 17.5933C31.607 17.5328 31.6167 17.3984 31.6255 17.2932C31.6261 17.3246 31.61 17.5449 31.605 17.5933Z" fill="#195598"/>
<path fill-rule="evenodd" clip-rule="evenodd" d="M31.6761 16.4053C31.6797 16.0495 31.6886 15.9245 31.6761 16.4053V16.4053Z" fill="#195598"/>
<path fill-rule="evenodd" clip-rule="evenodd" d="M28.6337 25.3553C28.6736 25.2965 28.7256 25.2198 28.7562 25.1748C28.8346 25.0688 28.9777 24.8736 29.0743 24.7234C28.9611 24.9101 28.8129 25.0933 28.6337 25.3553Z" fill="#195598"/>
<path fill-rule="evenodd" clip-rule="evenodd" d="M30.9382 21.1827C30.972 21.0849 30.9684 21.0956 31.0078 20.981C31.0131 20.9717 30.9964 21.0215 30.9965 21.0259C31.031 20.924 31.0576 20.8452 31.083 20.7699C31.1045 20.6934 31.1251 20.6206 31.15 20.5325C31.1444 20.5556 31.139 20.578 31.1406 20.5786C31.198 20.3426 31.2979 20.0767 31.4014 19.5808C31.3247 20.0614 30.99 21.0834 30.8495 21.4822C30.8652 21.4211 30.9884 21.0706 30.9972 21.0277C30.997 21.0165 30.9202 21.2531 30.9382 21.1827Z" fill="#195598"/>
<path fill-rule="evenodd" clip-rule="evenodd" d="M31.1919 20.7898C31.2052 20.7424 31.1978 20.7651 31.191 20.7887C31.1921 20.7744 31.2426 20.605 31.2504 20.5801C31.2436 20.6056 31.2051 20.7571 31.1727 20.8504C31.1408 20.9439 31.1277 20.9829 31.1919 20.7898Z" fill="#195598"/>
<path fill-rule="evenodd" clip-rule="evenodd" d="M31.8114 17.6397L31.8159 17.6444C31.8263 17.5065 31.8398 17.3272 31.8525 17.1589C31.8593 17.0751 31.8658 16.994 31.8715 16.922C31.8746 16.8509 31.8773 16.7892 31.8794 16.7412C31.8824 16.9052 31.8543 17.1599 31.8371 17.4034C31.8266 17.525 31.8202 17.6442 31.8087 17.7468C31.7972 17.8477 31.7876 17.9322 31.7804 17.9947C31.7725 18.0516 31.7588 18.1499 31.7508 18.2067C31.6568 18.9642 31.4878 19.778 31.262 20.5384C31.3543 20.1952 31.5661 19.416 31.6175 19.014C31.6298 18.9489 31.619 19.0129 31.6109 19.0578C31.6391 18.8848 31.6909 18.6446 31.725 18.389C31.7558 18.1329 31.7936 17.8647 31.8114 17.6397Z" fill="#195598"/>
<path fill-rule="evenodd" clip-rule="evenodd" d="M31.6249 17.9051C31.6302 17.8383 31.6481 17.719 31.6508 17.645C31.6569 17.6065 31.6404 17.8191 31.6249 17.9051Z" fill="#195598"/>
<path fill-rule="evenodd" clip-rule="evenodd" d="M28.0469 6.13597C28.1694 6.28215 28.2988 6.44701 28.4236 6.60347C28.5725 6.78468 28.6937 6.97158 28.8238 7.15225C28.8869 7.24394 28.9546 7.33279 29.0157 7.42813C29.0769 7.5232 29.1389 7.61962 29.203 7.71915C29.2598 7.80624 29.3159 7.89239 29.3719 7.9784C29.4271 8.06454 29.4763 8.15379 29.5289 8.2417C29.63 8.4198 29.7439 8.59344 29.8407 8.78831C29.9886 9.07379 30.0375 9.16832 30.1368 9.35995C30.2662 9.64759 30.3929 9.90562 30.4834 10.1304C30.5737 10.3553 30.6485 10.538 30.7045 10.6628C30.7854 10.8686 30.8639 11.1055 30.9463 11.3341C31.027 11.5632 31.0863 11.7919 31.1455 11.9767C31.1629 12.037 31.1985 12.1597 31.2053 12.1831C31.2657 12.4188 31.3212 12.6353 31.375 12.8456C31.4276 13.0531 31.4629 13.2548 31.5079 13.4605C31.5552 13.6659 31.5862 13.8796 31.6207 14.1134C31.638 14.2314 31.656 14.3533 31.6748 14.4811C31.6867 14.6118 31.6991 14.7481 31.7122 14.8925C31.7271 14.9933 31.7427 15.0605 31.7666 15.2585C31.7751 15.3466 31.7812 15.548 31.7874 15.6124C31.8087 15.8501 31.8226 15.6401 31.8453 16.0857C31.8498 16.1103 31.8487 16.0287 31.8507 16.0067C31.8813 16.0197 31.9024 15.8419 31.9285 15.9515C31.9346 15.6436 31.9523 15.7103 31.9593 15.4708C31.9691 15.3216 31.9517 15.0307 31.9451 14.8403C31.9408 14.7294 31.9366 14.6188 31.9325 14.5116C31.9281 14.4039 31.9152 14.3014 31.9094 14.2104C31.9188 14.2113 31.8852 13.9341 31.886 13.8795C31.8766 13.7956 31.8678 13.7161 31.8591 13.6388C31.8472 13.5626 31.8357 13.4884 31.8241 13.4141C31.8004 13.2644 31.7768 13.1146 31.75 12.9458C31.748 12.9124 31.7337 12.8315 31.7346 12.8233C31.5939 12.1107 31.4291 11.3914 31.089 10.4535C31.0564 10.3699 30.9866 10.191 30.9461 10.087C30.6751 9.39808 30.1641 8.37707 29.9638 8.04507C29.8967 7.92958 29.8978 7.93133 29.831 7.81639C29.7954 7.73957 29.5891 7.40473 29.4052 7.11641C29.3373 7.02391 29.2108 6.85149 29.0619 6.64851C28.9529 6.49055 28.8368 6.34463 28.7263 6.20007C28.6138 6.05726 28.5119 5.91161 28.3963 5.783C28.2935 5.66873 28.1748 5.53701 28.0669 5.41706C27.928 5.25167 27.6943 5.02312 27.4778 4.79052C27.2533 4.56576 27.0269 4.3552 26.8978 4.22822C26.6857 4.03713 26.607 3.96465 26.4433 3.82333C26.2965 3.69391 26.1747 3.60966 26.1839 3.62872C26.0704 3.5461 25.915 3.42763 25.7352 3.28834C25.5537 3.15121 25.3384 3.00543 25.1201 2.84802C24.8989 2.69466 24.6607 2.54956 24.4385 2.40472C24.2116 2.26759 23.9908 2.14615 23.8033 2.03972C23.5272 1.88434 23.249 1.74694 22.9742 1.61198C22.8343 1.54977 22.6948 1.48784 22.5561 1.42617C22.4176 1.36369 22.2794 1.30135 22.1374 1.24806C22.0253 1.20303 21.8892 1.14826 21.7739 1.10174C21.5825 1.0202 21.3161 0.942706 21.0636 0.856697C20.8483 0.780425 20.6408 0.726737 20.4445 0.671021C20.248 0.616251 20.0622 0.560398 19.878 0.523614C19.3166 0.373639 18.8939 0.31549 18.4141 0.238406C18.2341 0.214199 18.0547 0.190128 17.8528 0.162946C17.682 0.137251 17.515 0.135628 17.3262 0.118859C17.1383 0.107364 16.9435 0.0789652 16.7614 0.0786947C16.6265 0.0761253 16.5186 0.0739611 16.4085 0.0719326C16.263 0.0690927 16.1711 0.0600323 16.0171 0.0620608C15.8573 0.0680111 15.6908 0.074096 15.5296 0.0800463C14.9331 0.0962744 14.291 0.157672 13.7358 0.243681C12.7293 0.390545 11.8634 0.600563 10.7231 0.986521C10.5804 1.03331 10.4602 1.08335 10.3378 1.1323C10.2152 1.18031 10.0913 1.22886 9.94469 1.28633C9.88059 1.31406 9.88073 1.31257 9.78079 1.35801C9.63771 1.42252 9.49368 1.48743 9.3479 1.55315C9.27528 1.58628 9.20226 1.61969 9.12896 1.65309L8.91394 1.76439L8.48186 1.9878C8.33906 2.06474 8.20003 2.14832 8.05912 2.22689C8.03708 2.24082 8.01436 2.25502 7.9819 2.27544C7.78581 2.38106 7.58756 2.51142 7.38349 2.64098C7.28206 2.7067 7.1774 2.76958 7.07732 2.83896C6.97806 2.90942 6.8788 2.97974 6.78089 3.04925C6.68311 3.11889 6.58656 3.18773 6.49216 3.25494C6.40128 3.32661 6.31257 3.39666 6.22697 3.46415C6.05738 3.60087 5.89537 3.72096 5.76717 3.8401C5.56256 4.01779 5.3328 4.20104 5.1144 4.41971C5.0031 4.52668 4.88883 4.63649 4.77239 4.74833C4.66082 4.86517 4.54723 4.98418 4.43201 5.10481C4.21049 5.32781 4.01197 5.56528 3.81899 5.78733C3.72284 5.89457 3.62939 6.01858 3.53013 6.14448C3.43127 6.27079 3.32931 6.40116 3.22775 6.53098C3.13214 6.66527 3.0368 6.79902 2.94538 6.92736C2.85301 7.05515 2.76633 7.17876 2.69411 7.29695C2.60702 7.4357 2.52047 7.5735 2.43527 7.70901C2.28327 7.95879 2.12681 8.23061 1.97507 8.5031C1.70014 9.03755 1.4148 9.61798 1.19099 10.2041C1.13446 10.3503 1.07374 10.4938 1.02221 10.6383C0.972854 10.7837 0.92417 10.9269 0.876568 11.0671C0.775142 11.3459 0.706442 11.6215 0.632469 11.8741C0.610696 11.9524 0.589735 12.0278 0.568909 12.1026C0.552004 12.1781 0.535235 12.253 0.518196 12.329C0.484117 12.4812 0.448956 12.638 0.409197 12.8156C0.353616 13.1119 0.297629 13.4143 0.247728 13.7179C0.227848 13.8705 0.207834 14.0232 0.18809 14.1752C0.168211 14.3274 0.147248 14.4787 0.13927 14.6302C0.128857 14.7815 0.118715 14.9305 0.109113 15.0699C0.0922092 15.2507 0.0907212 15.4282 0.085447 15.6079C0.0820662 15.7876 0.0717873 15.9701 0.0742216 16.1617C0.0757091 17.0993 0.178489 18.037 0.32603 18.9053C0.35213 19.0438 0.379581 19.19 0.408116 19.3423C0.443547 19.4934 0.480466 19.6507 0.518332 19.8126C0.586084 20.1385 0.697111 20.4728 0.790829 20.8174C0.847762 20.9867 0.904965 21.1574 0.962304 21.3279L1.04872 21.583C1.08145 21.6664 1.11417 21.7494 1.14663 21.8322C1.21195 21.9974 1.27659 22.1609 1.34001 22.3212C1.41101 22.4781 1.48066 22.6318 1.54814 22.7807C1.66958 23.0485 1.80116 23.2953 1.93748 23.5655C2.15764 23.9777 2.42906 24.4367 2.72671 24.885C2.86992 25.1128 3.03666 25.3264 3.18691 25.5438C3.33999 25.7593 3.50646 25.9571 3.65455 26.152C4.95374 27.7479 6.59278 29.1229 8.43453 30.1235C10.2737 31.1286 12.311 31.7516 14.3347 31.9581C14.4919 31.9831 14.6953 31.9915 14.893 32.0083C15.0909 32.0229 15.284 32.0378 15.4241 32.0357C15.4843 32.0405 15.6712 32.0449 15.8133 32.0495C16.323 32.0543 16.9642 32.0359 17.6044 31.9776C17.7666 31.9591 18.1506 31.909 18.3909 31.8747C18.4943 31.8659 18.2527 31.896 18.4291 31.876C18.5322 31.8614 18.6945 31.8248 18.8918 31.7897C19.0888 31.7534 19.3203 31.7141 19.5546 31.6549C20.0275 31.5558 20.5157 31.4077 20.8187 31.3203C20.7765 31.3327 20.7671 31.3333 20.82 31.3174C20.9656 31.2719 21.032 31.2419 21.194 31.1873C21.3294 31.1404 21.461 31.0982 21.5865 31.0514C21.7107 31.0016 21.8311 30.9535 21.9487 30.9063C22.0659 30.8587 22.1801 30.8123 22.2924 30.7667C22.4022 30.7159 22.51 30.6661 22.6167 30.6167C22.7232 30.5674 22.8286 30.5185 22.9335 30.4697C23.0381 30.4202 23.1388 30.3636 23.242 30.3107C23.4467 30.2018 23.6577 30.0995 23.8662 29.9722C23.9729 29.9124 24.2611 29.7562 24.3552 29.6925C24.2034 29.7825 24.0084 29.8925 24.0186 29.8805C24.2776 29.742 24.5993 29.528 24.7618 29.418C24.8382 29.3691 24.9051 29.3262 24.967 29.2866C25.0269 29.2441 25.082 29.2053 25.1359 29.1672C25.2428 29.0902 25.3452 29.0166 25.4784 28.9208C25.543 28.8749 25.4118 28.9605 25.5503 28.8622C25.9524 28.5526 26.1555 28.3971 26.4967 28.0977C26.5521 28.0478 26.6722 27.9398 26.7966 27.8278C26.9202 27.7105 27.0456 27.5917 27.1067 27.5338C27.2122 27.4298 26.9851 27.6432 27.0753 27.5553C27.1496 27.4839 27.2225 27.4137 27.2944 27.3446C27.3634 27.2724 27.4313 27.2013 27.4984 27.1308C27.6312 26.9884 27.7672 26.8548 27.8934 26.7133C27.953 26.6404 27.9911 26.5911 28.0918 26.4734C28.1599 26.394 28.0765 26.4995 28.1775 26.3801C28.2709 26.2675 28.0988 26.4625 28.1192 26.4326C28.2524 26.2757 28.2237 26.3044 28.2887 26.2243C28.472 26.0038 28.5855 25.843 28.7458 25.6375C28.9048 25.4214 29.0759 25.1764 29.2257 24.965C29.3432 24.7777 29.396 24.6937 29.5286 24.4824C29.6425 24.3121 29.7273 24.1629 29.8413 23.9662C29.9002 23.8616 29.7972 24.0337 29.8825 23.8848C30.2727 23.191 30.6102 22.4681 30.811 21.9159C30.4847 22.7564 30.1852 23.3449 29.7952 24.0315C29.7305 24.132 29.6233 24.3425 29.5494 24.4364C29.5232 24.483 29.6237 24.3305 29.5277 24.4794C29.4958 24.5282 29.4831 24.548 29.4336 24.6237C29.4886 24.5258 29.3984 24.6666 29.3596 24.7186C29.1843 25.0056 28.9997 25.2424 28.8366 25.48C28.6679 25.7137 28.491 25.9273 28.3133 26.1575C28.2459 26.2418 28.3643 26.1026 28.2862 26.1974C28.1415 26.3655 28.0317 26.493 27.8604 26.6921C27.8076 26.7501 27.6817 26.8728 27.7427 26.8015C28.2746 26.2251 28.9302 25.3809 29.4257 24.5908C29.5005 24.471 29.5834 24.353 29.6475 24.241C29.712 24.1293 29.7683 24.0299 29.8057 23.9571C29.6057 24.3252 29.4066 24.5989 29.212 24.9055C29.0772 25.0978 28.9375 25.2969 28.7982 25.4954C28.656 25.6911 28.5041 25.8781 28.3626 26.0595C28.2834 26.1621 28.2452 26.2 28.1687 26.2884C28.11 26.3575 28.008 26.4775 27.9421 26.5552C27.8689 26.6376 27.8625 26.6449 27.7999 26.7154C27.6664 26.858 27.5612 26.9705 27.413 27.129C27.2894 27.2635 27.1568 27.3863 27.0218 27.513C26.8851 27.6377 26.7543 27.7753 26.6004 27.9035C26.5436 27.9499 26.5646 27.9246 26.6335 27.8635C26.8114 27.707 26.9072 27.6063 27.0099 27.5112C27.1093 27.4126 27.2181 27.3216 27.3823 27.1434C27.3445 27.1822 27.3209 27.2054 27.3223 27.2008C27.4255 27.0931 27.4631 27.0559 27.5314 26.98C27.2833 27.2405 27.299 27.2104 27.3808 27.1184C28.0103 26.4849 28.6968 25.6277 29.1074 25.0175C29.1529 24.9507 29.1796 24.9059 29.2495 24.7929C29.7093 24.1059 30.1565 23.2914 30.5111 22.4801C30.0946 23.4001 29.5849 24.3298 28.9041 25.2862C28.8771 25.3222 28.8953 25.2909 28.8282 25.3865C28.5374 25.7937 28.1672 26.2451 27.9092 26.5355C27.7941 26.6649 27.6751 26.7835 27.5581 26.896C27.4521 27.0076 27.3497 27.1151 27.2501 27.2199C27.1477 27.3219 27.0438 27.4169 26.9442 27.512C26.8434 27.606 26.7469 27.7004 26.6472 27.7891C26.5458 27.8755 26.4454 27.9609 26.3452 28.0462C26.2442 28.1302 26.1475 28.2186 26.043 28.2988C25.9387 28.3794 25.8338 28.4604 25.7276 28.5425C25.5185 28.7117 25.2889 28.8664 25.0498 29.0375C25.0522 29.0311 24.9768 29.0834 24.9462 29.1021C25.0199 29.0456 25.0762 29.0026 25.1584 28.9396C25.3142 28.8262 25.4781 28.7157 25.6103 28.6096C25.9982 28.3025 26.4635 27.9245 26.9147 27.4863C27.3764 27.059 27.8148 26.5655 28.2117 26.0961C28.2984 25.9735 28.2259 26.0661 28.1528 26.1399C27.7656 26.5876 27.4103 26.9972 26.95 27.423C26.8637 27.4953 26.8617 27.4889 26.9247 27.4226C26.9854 27.3541 27.1216 27.2359 27.285 27.0572C27.4213 26.9104 27.59 26.7442 27.755 26.5559C27.9168 26.365 28.0966 26.171 28.2546 25.9705C28.4109 25.7687 28.5685 25.579 28.6948 25.4051C28.8199 25.2302 28.9266 25.0808 29.002 24.9752C29.6705 24.0078 30.216 22.9636 30.6507 21.8698C31.0825 20.7748 31.3997 19.6252 31.5746 18.4338C31.3694 19.7559 31.0263 20.9544 30.5691 22.0613C30.5733 22.0579 30.5583 22.0993 30.5239 22.1856C30.0663 23.2726 29.4068 24.4093 28.8015 25.2482C28.6771 25.4258 28.4791 25.6741 28.2826 25.9244C28.1868 26.0516 28.0811 26.1708 27.9845 26.2814C27.8882 26.3905 27.8002 26.4902 27.7258 26.5744C27.7565 26.5285 27.8295 26.4364 27.9316 26.3129C28.0336 26.1893 28.1672 26.0365 28.3023 25.855C28.1636 26.0399 28.0132 26.205 27.8728 26.3662C27.8024 26.4466 27.7335 26.5252 27.6663 26.602C27.5957 26.6759 27.5269 26.7477 27.4601 26.8176C27.3486 26.9306 27.2049 27.0933 27.0621 27.2294C26.9194 27.365 26.792 27.4861 26.7321 27.5431C26.7034 27.5694 26.7555 27.5159 26.7016 27.5672C26.7959 27.4777 26.5349 27.7288 26.5117 27.7426C26.3812 27.8571 26.4046 27.8366 26.2531 27.9695C26.0531 28.1406 26.0596 28.1406 25.9263 28.2396C25.2215 28.8131 24.4895 29.3112 23.6979 29.7496C23.6171 29.7979 23.4501 29.8898 23.4358 29.8942C23.3591 29.9324 23.4231 29.897 23.3225 29.948C23.2686 29.9768 23.2872 29.9668 23.2076 30.0094C22.8965 30.1765 22.5254 30.336 22.2035 30.4824C21.9999 30.568 21.7835 30.6496 21.5666 30.736C21.3495 30.8224 21.1226 30.8892 20.9047 30.9656C20.6874 31.0446 20.467 31.0961 20.2628 31.157C20.1601 31.1858 20.0606 31.2138 19.965 31.2406C19.8682 31.2629 19.7755 31.2844 19.6876 31.3045C19.5309 31.3398 19.7359 31.2882 19.5244 31.337C19.2234 31.413 18.9115 31.4588 18.5982 31.516C18.442 31.5474 18.2821 31.5616 18.1226 31.583C17.9629 31.6026 17.8022 31.6222 17.641 31.6419C16.9936 31.6944 16.3326 31.7338 15.6681 31.7075C15.5679 31.7045 15.6481 31.7013 15.5013 31.6983C15.3186 31.6913 15.3626 31.7033 15.1981 31.6918C15.0963 31.6825 15.0029 31.6736 14.9489 31.6665C14.1893 31.6181 13.424 31.4982 12.6638 31.3327C11.9021 31.1717 11.151 30.936 10.4187 30.6549C9.05106 30.1333 7.76756 29.3943 6.65688 28.5609C5.78354 27.8997 5.01595 27.1802 4.36899 26.4441C4.26107 26.3202 4.15491 26.1984 4.05024 26.0783C3.94706 25.957 3.85307 25.8311 3.75584 25.7099C3.5584 25.4697 3.38624 25.2193 3.21125 24.9742C3.12145 24.8533 3.04153 24.7263 2.96093 24.6002L2.71805 24.2219C2.56835 23.962 2.41188 23.7036 2.2684 23.4315C2.16805 23.2338 2.06176 23.0327 1.96182 22.8278C1.8681 22.6201 1.77411 22.4117 1.68189 22.2075C1.59912 21.9992 1.51812 21.7951 1.44049 21.5997C1.35962 21.4055 1.30472 21.212 1.24129 21.0369C1.2018 20.9146 1.14284 20.7733 1.10538 20.6275C1.04561 20.4103 0.984618 20.1888 0.92498 19.9722C0.782848 19.3792 0.648156 18.7679 0.574994 18.1638C0.554303 17.9944 0.530774 17.827 0.512787 17.6599C0.500211 17.4924 0.487634 17.3259 0.475192 17.1597L0.456394 16.9107L0.449498 16.6612C0.44544 16.4949 0.441248 16.3282 0.437191 16.1606C0.435027 15.9717 0.443953 15.7864 0.445981 15.6015L0.451526 15.3239C0.454231 15.2313 0.463831 15.1385 0.470052 15.0449C0.492366 14.7974 0.502915 14.5368 0.541862 14.2815C0.564311 14.1022 0.586895 13.9221 0.609479 13.7421C0.637608 13.563 0.671145 13.3849 0.701438 13.2076C0.716989 13.1191 0.732406 13.0307 0.747823 12.9428C0.767567 12.8557 0.787313 12.7692 0.806922 12.6832C0.846681 12.5112 0.885897 12.3415 0.924439 12.1747C1.15569 11.2901 1.47687 10.4049 1.85985 9.5609C2.07136 9.09475 2.33912 8.59385 2.62406 8.10985C2.76349 7.86602 2.9232 7.63599 3.06628 7.40636C3.21733 7.182 3.37272 6.97131 3.51309 6.77022C3.99885 6.14124 4.531 5.50524 5.17715 4.87829C5.24625 4.81378 5.29318 4.76997 5.36269 4.70506C6.34706 3.76274 7.59878 2.8967 8.5699 2.37213C8.75003 2.27016 8.923 2.18618 9.09055 2.10031C9.25716 2.01214 9.42688 1.93898 9.60268 1.86095C9.9785 1.68379 10.3382 1.54693 10.7103 1.39993C10.8339 1.35909 10.948 1.32136 11.073 1.28012C11.2644 1.21547 11.4526 1.14867 11.6505 1.09566C11.8478 1.04102 12.0476 0.975161 12.2644 0.924042C12.5887 0.85034 12.9217 0.76636 13.2733 0.713077C13.4487 0.685354 13.6255 0.645596 13.8083 0.625176C13.9905 0.601375 14.1754 0.577168 14.3654 0.552285C14.5111 0.531323 14.6764 0.527943 14.8509 0.513338C15.0257 0.504142 15.2099 0.481151 15.398 0.480881C15.586 0.476283 15.7764 0.471685 15.9619 0.467223C16.1475 0.460596 16.3283 0.472497 16.4966 0.472767C17.634 0.511985 18.7824 0.654521 19.9166 0.942705C20.1079 0.991389 20.2875 1.04913 20.4693 1.10039C20.5602 1.12689 20.6506 1.15326 20.7426 1.18004C20.8331 1.20993 20.9246 1.24009 21.0204 1.27173C21.4107 1.4044 21.8715 1.57804 22.3319 1.7794C22.7861 1.97928 23.2488 2.21188 23.6995 2.4676C24.3506 2.81921 25.1075 3.34379 25.5388 3.68999C25.6296 3.77884 25.7771 3.89067 25.9598 4.02658C26.138 4.16763 26.3458 4.33992 26.5671 4.53412C26.7895 4.75374 26.7543 4.73115 26.8441 4.83055C26.9425 4.92914 27.0432 5.01934 27.1361 5.1159C27.229 5.21205 27.3215 5.30779 27.4156 5.40529C27.6367 5.63154 27.7702 5.82019 28.0469 6.13597ZM27.1068 27.4916C27.1017 27.4985 27.114 27.4878 27.1388 27.4646C27.0752 27.5333 26.9216 27.6679 27.1068 27.4916ZM27.1703 27.4279C27.3039 27.3065 27.4476 27.1435 27.5895 26.9961C27.7312 26.8484 27.8624 26.7081 27.9476 26.6083C27.9937 26.5551 27.9011 26.6513 27.9748 26.5639C28.0763 26.4484 28.2021 26.3161 28.3698 26.1094C28.3939 26.1072 28.0419 26.4997 28.0339 26.5236C27.9037 26.6738 27.846 26.7402 27.7756 26.8215C27.4833 27.1189 27.4306 27.1969 27.2014 27.4134C27.2576 27.3518 27.1573 27.4493 27.1703 27.4279Z" fill="#195598"/>
<path d="M30.433 16.0901C30.433 8.15825 24.003 1.72827 16.0711 1.72827C8.13921 1.72827 1.70923 8.15825 1.70923 16.0901C1.70923 23.4617 7.26343 29.5351 14.4152 30.3564V19.2539H12.0514V15.3074H14.4152V12.9381C14.4152 9.71912 15.7496 7.80448 19.5419 7.80448H22.6991V11.751H20.7261C19.2499 11.751 19.1517 12.3032 19.1517 13.3318L19.1469 15.3075H22.7215L22.3034 19.2534H19.1469V30.1209C25.6005 28.7125 30.433 22.9661 30.433 16.0901Z" fill="#195598"/>
</svg>
