<svg width="84" height="177" viewBox="0 0 84 177" fill="none" xmlns="http://www.w3.org/2000/svg">
<rect x="1.43836" y="93.7954" width="81.1232" height="81.1232" rx="40.5616" fill="#E8EFFF"/>
<rect x="1.43836" y="93.7954" width="81.1232" height="81.1232" rx="40.5616" stroke="#FAFAF7" stroke-width="2.87671"/>
<circle cx="42" cy="134.357" r="35.4242" stroke="white" stroke-width="1.27273"/>
<mask id="path-3-inside-1_26_180" fill="white">
<path d="M-1.83588e-06 88.5001C2.01825e-06 89.0209 0.0124448 89.5395 0.0312481 90.0557L83.9678 90.0557C83.9866 89.5395 84 89.0209 84 88.5001C84 65.3041 65.1959 46.5001 42 46.5001C18.8041 46.5001 -8.21951e-07 65.3041 -1.83588e-06 88.5001Z"/>
</mask>
<path d="M-1.83588e-06 88.5001L-0.575344 88.5001L-0.575344 88.5001L-1.83588e-06 88.5001ZM0.0312481 90.0557L0.0312481 90.6311L-0.523521 90.6311L-0.543713 90.0767L0.0312481 90.0557ZM83.9678 90.0557L84.5427 90.0767L84.5225 90.6311L83.9678 90.6311L83.9678 90.0557ZM84 88.5001L84.5753 88.5001L84.5753 88.5001L84 88.5001ZM42 46.5001L42 45.9247L42 46.5001ZM-1.83588e-06 88.5001L0.57534 88.5001C0.575344 89.0119 0.587574 89.5231 0.606209 90.0348L0.0312481 90.0557L-0.543713 90.0767C-0.562684 89.5558 -0.57534 89.0299 -0.575344 88.5001L-1.83588e-06 88.5001ZM0.0312481 90.0557L0.0312481 89.4804L83.9678 89.4804L83.9678 90.0557L83.9678 90.6311L0.0312481 90.6311L0.0312481 90.0557ZM83.9678 90.0557L83.3928 90.0348C83.4115 89.5223 83.4247 89.0113 83.4247 88.5001L84 88.5001L84.5753 88.5001C84.5753 89.0305 84.5617 89.5566 84.5427 90.0767L83.9678 90.0557ZM84 88.5001L83.4247 88.5001C83.4247 65.6219 64.8782 47.0754 42 47.0754L42 46.5001L42 45.9247C65.5137 45.9247 84.5753 64.9864 84.5753 88.5001L84 88.5001ZM42 46.5001L42 47.0754C19.1218 47.0754 0.575341 65.6219 0.57534 88.5001L-1.83588e-06 88.5001L-0.575344 88.5001C-0.575343 64.9864 18.4863 45.9247 42 45.9247L42 46.5001Z" fill="#A1C0FF" mask="url(#path-3-inside-1_26_180)"/>
<mask id="path-5-inside-2_26_180" fill="white">
<path d="M-1.83588e-06 42.643C2.01933e-06 43.1639 0.0124448 43.6824 0.0312481 44.1987L83.9678 44.1987C83.9866 43.6824 84 43.1639 84 42.643C84 19.4471 65.1959 0.643023 42 0.643007C18.8041 0.643006 -8.21951e-07 19.4471 -1.83588e-06 42.643Z"/>
</mask>
<path d="M-1.83588e-06 42.643L-0.575344 42.643L-0.575344 42.643L-1.83588e-06 42.643ZM0.0312481 44.1987L0.0312481 44.774L-0.523521 44.774L-0.543713 44.2196L0.0312481 44.1987ZM83.9678 44.1987L84.5427 44.2196L84.5225 44.774L83.9678 44.774L83.9678 44.1987ZM84 42.643L84.5753 42.643L84.5753 42.643L84 42.643ZM42 0.643007L42 0.0676651L42 0.643007ZM-1.83588e-06 42.643L0.57534 42.643C0.575344 43.1549 0.587574 43.6661 0.606209 44.1777L0.0312481 44.1987L-0.543713 44.2196C-0.562684 43.6987 -0.57534 43.1729 -0.575344 42.643L-1.83588e-06 42.643ZM0.0312481 44.1987L0.0312481 43.6233L83.9678 43.6233L83.9678 44.1987L83.9678 44.774L0.0312481 44.774L0.0312481 44.1987ZM83.9678 44.1987L83.3928 44.1777C83.4115 43.6652 83.4247 43.1543 83.4247 42.643L84 42.643L84.5753 42.643C84.5753 43.1735 84.5617 43.6996 84.5427 44.2196L83.9678 44.1987ZM84 42.643L83.4247 42.643C83.4247 19.7648 64.8782 1.21836 42 1.21835L42 0.643007L42 0.0676651C65.5137 0.067681 84.5753 19.1293 84.5753 42.643L84 42.643ZM42 0.643007L42 1.21835C19.1218 1.21835 0.575341 19.7648 0.57534 42.643L-1.83588e-06 42.643L-0.575344 42.643C-0.575343 19.1293 18.4863 0.0676641 42 0.0676651L42 0.643007Z" fill="#A1C0FF" mask="url(#path-5-inside-2_26_180)"/>
</svg>
