<svg width="33" height="34" viewBox="0 0 33 34" fill="none" xmlns="http://www.w3.org/2000/svg">
<path fill-rule="evenodd" clip-rule="evenodd" d="M21.5409 31.8828C21.5926 31.8663 21.6861 31.8475 21.7883 31.8054C21.7656 31.8214 21.6289 31.8679 21.5409 31.8828Z" fill="black"/>
<path fill-rule="evenodd" clip-rule="evenodd" d="M25.3246 30.6334C25.3928 30.5898 25.6076 30.4553 25.5881 30.4754C25.4673 30.5477 25.4113 30.5812 25.3246 30.6334Z" fill="black"/>
<path fill-rule="evenodd" clip-rule="evenodd" d="M25.7 30.4165C25.8026 30.3536 25.8888 30.3007 25.9631 30.2551C25.9624 30.258 25.9091 30.2914 25.8498 30.3274C25.7962 30.3593 25.7389 30.3932 25.7 30.4165Z" fill="black"/>
<path fill-rule="evenodd" clip-rule="evenodd" d="M26.6743 29.6561C26.7491 29.5997 26.8277 29.5405 26.9204 29.4705C26.8247 29.5426 26.7442 29.6034 26.6743 29.6561Z" fill="black"/>
<path fill-rule="evenodd" clip-rule="evenodd" d="M27.1658 29.3701C27.2527 29.3088 27.3813 29.1827 27.5645 29.019C27.5005 29.0762 27.3218 29.2601 27.1658 29.3701Z" fill="black"/>
<path fill-rule="evenodd" clip-rule="evenodd" d="M28.0845 28.1182C28.2803 27.9409 28.6258 27.524 28.7617 27.3936C28.5381 27.6242 28.3075 27.9166 28.0845 28.1182Z" fill="black"/>
<path fill-rule="evenodd" clip-rule="evenodd" d="M28.6735 27.6979C28.8836 27.4397 29.3184 27.0282 29.5506 26.6685C29.5714 26.6466 29.4783 26.7716 29.3712 26.9147C29.2658 27.0592 29.1195 27.1995 29.0838 27.2493C29.0205 27.3173 28.9654 27.3764 28.9074 27.4386C28.8288 27.5261 28.7584 27.6106 28.6735 27.6979Z" fill="black"/>
<path fill-rule="evenodd" clip-rule="evenodd" d="M31.0712 24.4123C31.0638 24.4187 31.0748 24.3901 31.1249 24.2875C31.1402 24.2588 31.147 24.2494 31.1469 24.2558L31.0712 24.4123Z" fill="black"/>
<path fill-rule="evenodd" clip-rule="evenodd" d="M32.6211 18.3755C32.6259 18.2602 32.6294 18.1718 32.6335 18.0737C32.6355 18.1053 32.6252 18.3269 32.6211 18.3755Z" fill="black"/>
<path fill-rule="evenodd" clip-rule="evenodd" d="M32.6882 17.1823C32.6997 16.8255 32.713 16.7001 32.6882 17.1823V17.1823Z" fill="black"/>
<path fill-rule="evenodd" clip-rule="evenodd" d="M29.6271 26.1617C29.6693 26.1021 29.7055 26.051 29.7537 25.9831C29.8339 25.8777 29.9881 25.6892 30.0799 25.5352C29.9719 25.7262 29.8108 25.9015 29.6271 26.1617Z" fill="black"/>
<path fill-rule="evenodd" clip-rule="evenodd" d="M31.7173 23.1235C31.8032 22.8693 32.0133 22.2938 32.1344 21.9787C32.1476 21.9397 32.1572 21.9114 32.177 21.8528C32.2266 21.6567 32.3417 21.2199 32.2323 21.6445C32.0919 22.1682 31.91 22.5597 31.7173 23.1235Z" fill="url(#paint0_linear_47_145)"/>
<path fill-rule="evenodd" clip-rule="evenodd" d="M31.8557 22.9602C31.8891 22.8666 31.9178 22.7856 31.9589 22.6704C31.951 22.7023 31.8745 22.9135 31.8557 22.9602Z" fill="url(#paint1_linear_47_145)"/>
<path fill-rule="evenodd" clip-rule="evenodd" d="M31.8175 22.5049C31.8619 22.3825 31.9112 22.2469 31.9501 22.1394C31.9145 22.2375 31.8646 22.3747 31.8175 22.5049Z" fill="url(#paint2_linear_47_145)"/>
<path fill-rule="evenodd" clip-rule="evenodd" d="M31.9446 22.646C31.9996 22.4905 32.0535 22.3374 32.1057 22.1899C32.1521 22.0798 32.001 22.4898 31.9446 22.646Z" fill="url(#paint3_linear_47_145)"/>
<path fill-rule="evenodd" clip-rule="evenodd" d="M32.0331 22.4646C32.0948 22.292 32.1517 22.133 32.2107 21.9678C32.1532 22.1287 32.0903 22.3047 32.0331 22.4646Z" fill="url(#paint4_linear_47_145)"/>
<path fill-rule="evenodd" clip-rule="evenodd" d="M31.9274 22.1034C31.9279 22.0874 31.9867 21.9284 32.0273 21.8145C32.0228 21.8402 31.9624 22.0028 31.9274 22.1034Z" fill="url(#paint5_linear_47_145)"/>
<path fill-rule="evenodd" clip-rule="evenodd" d="M32.0258 21.9381C32.0801 21.8073 32.1847 21.3343 32.2502 21.1042C32.1728 21.3972 32.132 21.6254 32.0258 21.9381Z" fill="url(#paint6_linear_47_145)"/>
<path fill-rule="evenodd" clip-rule="evenodd" d="M32.2406 21.8857C32.3222 21.5684 32.3811 21.3391 32.4255 21.1663C32.3629 21.4098 32.3094 21.618 32.2406 21.8857Z" fill="url(#paint7_linear_47_145)"/>
<path fill-rule="evenodd" clip-rule="evenodd" d="M32.3191 21.3078L32.4024 20.9671C32.4147 20.9453 32.3553 21.1658 32.3191 21.3078Z" fill="url(#paint8_linear_47_145)"/>
<path fill-rule="evenodd" clip-rule="evenodd" d="M32.4283 20.9442C32.4681 20.7874 32.4791 20.7439 32.5141 20.606C32.4834 20.7272 32.4531 20.8463 32.4283 20.9442Z" fill="url(#paint9_linear_47_145)"/>
<path fill-rule="evenodd" clip-rule="evenodd" d="M32.5399 20.5829C32.5515 20.5361 32.6245 20.2181 32.6132 20.2894C32.6007 20.3822 32.5933 20.3706 32.5933 20.3706C32.5688 20.4676 32.5697 20.4639 32.5399 20.5829Z" fill="url(#paint10_linear_47_145)"/>
<path fill-rule="evenodd" clip-rule="evenodd" d="M32.5916 19.6636C32.501 20.2369 32.5652 19.876 32.5916 19.6636V19.6636Z" fill="url(#paint11_linear_47_145)"/>
<path fill-rule="evenodd" clip-rule="evenodd" d="M32.6097 19.1871C32.6285 19.0107 32.6724 18.8394 32.6822 18.6313C32.6871 18.7634 32.6191 19.0999 32.6097 19.1871Z" fill="url(#paint12_linear_47_145)"/>
<path fill-rule="evenodd" clip-rule="evenodd" d="M32.6214 19.0513C32.6074 19.1123 32.6602 18.7695 32.6541 18.8386L32.6214 19.0513Z" fill="url(#paint13_linear_47_145)"/>
<path fill-rule="evenodd" clip-rule="evenodd" d="M31.9393 22.2499C31.9732 22.1594 31.9734 22.1591 32.0146 22.049C32.0205 22.0399 32.0025 22.0894 32.0028 22.0939C32.0825 21.8928 32.1162 21.7783 32.1575 21.5984C32.1526 21.6218 32.15 21.6452 32.15 21.6452C32.2031 21.4066 32.2859 21.1347 32.4092 20.6409C32.339 20.919 32.251 21.2676 32.1597 21.629C32.068 22.0021 31.9081 22.346 31.8451 22.5489C31.9079 22.3697 31.935 22.2921 32.0037 22.0956C32.0031 22.0844 31.9205 22.3205 31.9393 22.2499Z" fill="url(#paint14_linear_47_145)"/>
<path fill-rule="evenodd" clip-rule="evenodd" d="M32.2267 21.8654C32.2388 21.8173 32.2318 21.8402 32.2255 21.8643C32.2258 21.8496 32.2728 21.678 32.2801 21.6528C32.2847 21.7099 32.0926 22.2524 32.2267 21.8654Z" fill="url(#paint15_linear_47_145)"/>
<path fill-rule="evenodd" clip-rule="evenodd" d="M32.8468 18.6931L32.8524 18.6978C32.8669 18.4315 32.8872 18.0615 32.9021 17.7876C32.8819 18.1165 32.8643 18.8178 32.8122 19.0497L32.7765 19.2624C32.7189 19.6421 32.6718 20.0411 32.5916 20.4369C32.4917 20.8269 32.3937 21.2102 32.291 21.6109C32.3533 21.2576 32.6146 20.4841 32.6471 20.0759C32.658 20.0101 32.6489 20.0748 32.6418 20.1203C32.6919 19.7712 32.801 19.1451 32.8468 18.6931Z" fill="url(#paint16_linear_47_145)"/>
<path fill-rule="evenodd" clip-rule="evenodd" d="M32.6243 18.9557C32.6297 18.8887 32.6542 18.7697 32.6537 18.695C32.6616 18.6565 32.644 18.8698 32.6243 18.9557Z" fill="url(#paint17_linear_47_145)"/>
<path fill-rule="evenodd" clip-rule="evenodd" d="M29.0189 7.14183C29.143 7.28741 29.2661 7.45818 29.3885 7.61738C29.6616 8.00004 29.9411 8.31981 30.1726 8.73489C30.3863 9.09413 30.6162 9.41797 30.8199 9.8035C30.957 10.0825 31.0092 10.1886 31.1048 10.3834C31.2399 10.6696 31.3814 10.9222 31.4672 11.1498C31.5524 11.3775 31.6234 11.5625 31.6776 11.6885C31.765 11.9146 31.8515 12.1381 31.9362 12.3569C32.0233 12.5847 32.0692 12.8183 32.1274 13.0042C32.1481 13.0826 32.1744 13.1826 32.1824 13.2128C32.2445 13.428 32.308 13.6484 32.3728 13.8733C32.4308 14.0804 32.4556 14.2851 32.4988 14.4919C32.5397 14.7141 32.5802 14.9332 32.6197 15.147C32.6416 15.271 32.6634 15.3935 32.6849 15.5151L32.7134 15.9291C32.7271 16.0304 32.7431 16.0979 32.764 16.2972C32.7745 16.4171 32.7847 16.5355 32.7949 16.6526C32.8255 16.8913 32.8381 16.6802 32.8746 17.128C32.8805 17.1527 32.8776 17.0708 32.8795 17.0486C32.9167 17.0617 32.9385 16.8827 32.9724 16.9931C32.9735 16.6832 32.9964 16.7501 33 16.5089C32.9988 16.304 32.9976 16.0786 32.9965 15.8728C32.9991 15.6526 32.994 15.4196 32.9688 15.2377C32.9802 15.2384 32.9398 14.9597 32.9408 14.9046C32.9006 14.5914 32.8598 14.2728 32.8196 13.96C32.8196 13.926 32.8064 13.8441 32.8067 13.836C32.6315 13.1255 32.522 12.3841 32.1486 11.4465C32.1172 11.3595 32.0514 11.1773 32.0137 11.073C31.8982 10.7167 31.6597 10.303 31.4858 9.91012C31.3923 9.71661 31.31 9.52964 31.2298 9.37467C31.1555 9.24597 31.0874 9.1279 31.021 9.0131C30.9505 8.89816 30.9516 8.89993 30.8815 8.78554C30.8433 8.70928 30.6483 8.36283 30.4684 8.068C30.4118 7.99487 30.2377 7.76977 30.1097 7.60431C29.8722 7.29872 29.6748 6.98768 29.4472 6.72308C29.3651 6.63674 29.1969 6.4597 29.1046 6.36247C28.9446 6.18748 28.7325 5.95556 28.5186 5.7216C28.292 5.495 28.0549 5.29127 27.9229 5.16489C27.7315 4.98649 27.6154 4.87837 27.4731 4.74572C27.3297 4.60941 27.2021 4.53042 27.2106 4.55058C26.9761 4.39057 26.5708 4.08892 26.1354 3.76345C25.6821 3.4648 25.1782 3.17242 24.8059 2.948C24.2399 2.65208 23.6862 2.38843 23.1232 2.15147C23.0144 2.11062 22.8643 2.0541 22.7531 2.01229C22.5677 1.94638 22.2852 1.84574 22.0385 1.75804C21.6053 1.60089 21.2042 1.53185 20.8396 1.43149C20.2791 1.252 19.8471 1.22353 19.3626 1.147C19.1917 1.11949 18.9894 1.08694 18.7981 1.05603C18.6266 1.02171 18.4571 1.03261 18.2666 1.01831C18.0882 1.00769 17.8681 0.994746 17.6961 0.984532C17.5662 0.978949 17.4469 0.97391 17.3401 0.96928C17.1935 0.963969 17.1007 0.94804 16.9455 0.951717C16.8028 0.960841 16.5976 0.974045 16.4539 0.983169C16.1498 0.998694 15.8401 1.01449 15.5322 1.03029C15.2233 1.03982 14.9254 1.11349 14.645 1.1534C14.1365 1.22435 13.6597 1.28876 13.176 1.43461C12.6893 1.56466 12.1717 1.6732 11.6061 1.8994C11.31 2.00875 11.1232 2.07767 10.8162 2.1911C10.7514 2.21875 10.7502 2.21385 10.6506 2.26274C10.3595 2.40355 10.0784 2.53945 9.78072 2.68353C9.63242 2.75584 9.48494 2.82775 9.33963 2.8987C9.19528 2.97551 9.05856 3.0662 8.91775 3.14764C8.88956 3.16657 8.86423 3.18373 8.84121 3.19912C8.05068 3.62904 7.14316 4.32016 6.60184 4.77038C6.37619 4.97438 6.17669 5.15468 5.94832 5.36127C5.83406 5.46626 5.71571 5.5748 5.59574 5.68483C5.48475 5.80617 5.37294 5.92819 5.25991 6.05157C5.04815 6.28348 4.83857 6.51308 4.63553 6.73533C4.43956 6.94995 4.25504 7.23212 4.05036 7.49427C3.85739 7.76513 3.638 8.01475 3.50141 8.2592C3.42351 8.39061 3.32737 8.5528 3.25097 8.68163C3.10063 8.93547 2.92686 9.20062 2.77366 9.47516C2.23029 10.559 1.67985 11.8454 1.43145 12.8807C1.35478 13.1873 1.28206 13.4785 1.19477 13.8281C1.10312 14.4286 0.981785 15.0514 0.924861 15.6593C0.918733 15.8047 0.911917 15.9688 0.906334 16.1037C0.89258 16.4696 0.861808 16.8182 0.857178 17.2047C0.882099 17.6741 0.907424 18.1495 0.932209 18.6152C0.970203 19.0796 1.06376 19.5312 1.12014 19.972C1.14411 20.1119 1.16358 20.2609 1.19395 20.4142C1.23385 20.567 1.27498 20.7244 1.31706 20.8858C1.40177 21.2123 1.49042 21.5546 1.58071 21.9028C1.70381 22.2416 1.82883 22.5856 1.95112 22.9225C2.01308 23.0907 2.07436 23.2571 2.13442 23.4203C2.20986 23.5767 2.28381 23.7301 2.35545 23.8786C2.49135 24.1424 2.60751 24.3994 2.74111 24.6741C2.95927 25.0916 3.26091 25.5384 3.53831 26.0046C3.83791 26.4564 4.18599 26.882 4.47347 27.2832C5.78476 28.8924 7.43732 30.2803 9.2951 31.2903C11.1503 32.3047 13.2065 32.9332 15.2481 33.1371C15.566 33.1805 16.066 33.1868 16.3475 33.2015C16.4904 33.2105 16.6098 33.2178 16.7397 33.226C17.2533 33.2425 17.8988 33.1805 18.546 33.1567C18.7099 33.1421 19.0952 33.0763 19.3368 33.0366C19.4409 33.0259 19.1979 33.0623 19.3754 33.0382C19.5791 32.9859 20.0412 32.9534 20.5111 32.8248C20.9811 32.7028 21.4677 32.5765 21.7877 32.4935C21.7449 32.5052 21.7353 32.5053 21.7888 32.4899C21.9346 32.4412 22.0005 32.4079 22.1626 32.349C23.2572 31.976 23.9929 31.5937 24.856 31.1244C24.9626 31.0626 25.2486 30.8976 25.343 30.8327C25.1903 30.9243 24.9977 31.0418 25.0069 31.0279C25.2607 30.8765 25.5918 30.6716 25.7576 30.5641C26.0762 30.3836 26.2095 30.2469 26.474 30.0554C26.538 30.0076 26.4072 30.096 26.5445 29.9936C26.9533 29.6865 27.1704 29.5451 27.5023 29.2297C27.5966 29.135 27.9935 28.7715 28.1185 28.6628C28.2267 28.5603 27.9927 28.7695 28.0854 28.6828C28.4039 28.415 28.6349 28.1009 28.9032 27.829C28.9719 27.7492 29.0383 27.672 29.1077 27.5914C29.1782 27.513 29.0926 27.6179 29.1969 27.4998C29.2932 27.3882 29.1146 27.5802 29.1352 27.5501C29.2729 27.3951 29.2427 27.4229 29.3094 27.3434C29.4927 27.1204 29.5997 26.9525 29.7565 26.7421C29.9272 26.5124 30.0905 26.293 30.253 26.0743C30.36 25.8936 30.4303 25.775 30.5456 25.5804C30.6479 25.415 30.7517 25.2473 30.8655 25.0633C30.9272 24.9594 30.8187 25.1297 30.9082 24.982C31.1277 24.6455 31.2675 24.2658 31.4387 23.9333C31.6017 23.5959 31.7536 23.2824 31.8387 22.9978C31.7056 23.4337 31.5001 23.7728 31.3454 24.1178C31.1812 24.4589 31.0314 24.7917 30.8162 25.1273C30.7481 25.2267 30.634 25.4352 30.5644 25.5326C30.5396 25.5806 30.6374 25.4248 30.5443 25.577C30.5145 25.6249 30.4977 25.6521 30.4528 25.7243C30.5048 25.6235 30.4174 25.7675 30.3788 25.8203C30.0179 26.3923 29.6718 26.7974 29.3306 27.2735C29.2632 27.3586 29.3831 27.2192 29.3041 27.3141C29.1521 27.4825 29.0479 27.5982 28.8637 27.8022C28.8062 27.8566 28.6853 27.9856 28.7431 27.9104C29.0063 27.6163 29.334 27.2835 29.6068 26.8814C29.8864 26.4862 30.2153 26.1022 30.4401 25.6884C30.5875 25.4451 30.746 25.1958 30.8233 25.0505C30.6077 25.3995 30.4129 25.7149 30.2312 26.0091C29.9548 26.384 29.6478 26.8003 29.3749 27.1703C29.2986 27.2764 29.2576 27.3123 29.1785 27.3995C29.1235 27.4614 29.0067 27.5931 28.9446 27.663C28.8796 27.7324 28.853 27.7608 28.7972 27.8204C28.6738 27.9588 28.5534 28.0936 28.4175 28.246C28.1745 28.522 27.883 28.7394 27.5927 29.0181C27.5363 29.0658 27.5562 29.039 27.6241 28.9756C27.9718 28.6496 28.0498 28.6124 28.3855 28.2593C28.3484 28.2992 28.3251 28.3229 28.326 28.318C28.4174 28.2166 28.4264 28.2066 28.531 28.0907C28.2876 28.3589 28.3015 28.3267 28.381 28.2314C28.6805 27.8969 29.0272 27.5354 29.3346 27.167C29.6219 26.7837 29.8939 26.4207 30.1206 26.118C30.1684 26.0521 30.1952 26.0072 30.2614 25.8907C30.4796 25.5304 30.7059 25.1568 30.9374 24.7744C31.1448 24.3776 31.3333 23.962 31.5281 23.5615C31.0983 24.4823 30.5992 25.4243 29.9076 26.3823C29.8794 26.4177 29.8978 26.3864 29.8281 26.4811C29.5329 26.8891 29.1829 27.3605 28.9052 27.6377C28.7881 27.757 28.6699 27.8773 28.5503 27.9991C27.7059 28.9044 26.9863 29.4619 26.0296 30.1548C26.0315 30.1477 25.9569 30.2021 25.9262 30.221C25.9942 30.1654 26.0696 30.1039 26.1347 30.0506C26.2862 29.9376 26.4202 29.8377 26.5859 29.714C27.3936 29.1294 28.4035 28.1332 29.21 27.196C29.2922 27.0688 29.2245 27.1662 29.1471 27.237C28.9406 27.4643 28.7553 27.6683 28.5609 27.8822C28.3655 28.0952 28.1783 28.3226 27.9331 28.5224C27.7489 28.6562 27.9331 28.5054 28.2686 28.1539C28.5345 27.8517 28.9171 27.4572 29.2439 27.0624C29.5511 26.6535 29.837 26.273 29.9955 26.0619C31.3325 24.1137 32.2068 21.8749 32.5633 19.4846C32.392 20.8201 31.9994 22.0116 31.5681 23.1324C31.5727 23.1291 31.5588 23.1712 31.5264 23.2587C31.2592 23.7866 31.0219 24.3677 30.711 24.8883C30.3874 25.4009 30.1171 25.9274 29.7864 26.3309C29.6131 26.5603 29.4536 26.7714 29.2699 27.0144C29.082 27.2732 28.8472 27.4945 28.7011 27.6589C28.7544 27.5595 29.0184 27.309 29.2841 26.9401C29.0092 27.3144 28.6874 27.6088 28.4333 27.9027C28.3226 28.0172 28.1873 28.1896 28.0403 28.3224C27.8958 28.4531 27.7794 28.5585 27.7012 28.6293C27.6718 28.6549 27.7248 28.6021 27.6694 28.6523C27.7662 28.5646 27.4975 28.8098 27.478 28.8279C27.3477 28.9481 27.3642 28.933 27.224 29.0624C27.0266 29.2381 27.0358 29.2415 26.8982 29.3362C26.5306 29.6109 26.1726 29.8787 25.8129 30.1476C25.4299 30.3812 25.0503 30.6125 24.6584 30.8515C24.5794 30.9037 24.4122 30.9968 24.3965 30.9986C24.3494 31.0192 24.3381 31.0242 24.281 31.0491C24.2407 31.0697 24.2237 31.0783 24.1645 31.1084C23.8427 31.2625 23.4778 31.4374 23.1588 31.5902C22.7457 31.7518 22.2877 31.911 21.8526 32.072C21.4144 32.2236 20.9765 32.3062 20.6285 32.4051C20.472 32.4443 20.6764 32.3864 20.4654 32.4409C20.1663 32.5317 19.85 32.5609 19.5343 32.6118C19.2177 32.6585 18.8978 32.7058 18.5752 32.7533C18.249 32.7691 17.9203 32.785 17.5899 32.801C17.2594 32.8199 16.927 32.8399 16.5937 32.809C16.4932 32.8034 16.5737 32.801 16.4265 32.7944C16.2865 32.7899 16.2457 32.7886 16.1221 32.7846C16.0414 32.7781 15.9647 32.772 15.8716 32.7645C14.3542 32.6362 12.7857 32.351 11.3246 31.7503C9.96035 31.2145 8.64851 30.5094 7.55157 29.6454C7.33518 29.4761 7.10408 29.3294 6.90621 29.1475C6.70712 28.9673 6.51006 28.7891 6.31627 28.6138C5.91318 28.2776 5.58375 27.888 5.2531 27.5237C4.78464 27.0555 4.45835 26.5278 4.08331 26.054C3.74531 25.5539 3.4419 25.0407 3.13535 24.5055C2.94225 24.1042 2.73947 23.6825 2.54432 23.2769C2.3884 22.8557 2.23969 22.4541 2.10814 22.0986C2.06755 21.9762 1.99688 21.838 1.96651 21.6895C1.91408 21.479 1.85389 21.2371 1.80159 21.027C1.7331 20.7288 1.62946 20.4339 1.58493 20.1273C1.53686 19.8184 1.48933 19.5127 1.44276 19.2135C1.41824 19.0439 1.38828 18.8766 1.36895 18.7091L1.34429 18.2059C1.32768 17.8716 1.31121 17.5389 1.29446 17.2028C1.2999 16.8238 1.324 16.4592 1.33926 16.0827C1.35873 15.8342 1.35097 15.5708 1.40299 15.3158C1.51248 14.5982 1.59719 13.8622 1.79982 13.2031C1.85729 12.9817 1.91544 12.7578 1.97387 12.5328C2.04005 12.3107 2.13142 12.0954 2.20891 11.8755C2.37328 11.4388 2.51423 10.9906 2.73171 10.5775C2.95859 10.1162 3.18778 9.59337 3.50182 9.12259C3.64807 8.88142 3.79365 8.6416 3.93474 8.409C4.08617 8.18362 4.25136 7.97853 4.39571 7.7793C4.86241 7.13121 5.42456 6.5154 6.05767 5.87249C6.12208 5.81543 6.18213 5.76218 6.24859 5.70335C7.21834 4.7321 8.50892 3.91107 9.46342 3.35245C9.8292 3.15553 10.1575 3.01595 10.5049 2.84763C10.8747 2.65235 11.2433 2.5336 11.6193 2.39224C11.736 2.35071 11.8621 2.30563 11.9806 2.26341C12.3565 2.10694 12.7476 2.03232 13.1783 1.91275C13.8189 1.71365 14.5311 1.65767 15.2852 1.52612C15.5785 1.49208 15.9467 1.49263 16.323 1.47016C16.7 1.44932 17.0874 1.42631 17.4251 1.45532C17.995 1.4993 18.573 1.488 19.1424 1.60103C19.4286 1.64406 19.7162 1.68737 20.0037 1.73054C20.2924 1.77112 20.5709 1.86726 20.8565 1.93453C21.2371 2.04525 21.5946 2.10694 21.9669 2.25538C22.3496 2.41349 22.8262 2.55253 23.2846 2.76293C23.7285 2.98871 24.209 3.19108 24.657 3.45527C24.9765 3.64974 25.3289 3.86422 25.665 4.06877C25.9917 4.28584 26.2769 4.52293 26.4972 4.69139C26.5885 4.78045 26.7397 4.88858 26.9273 5.01945C27.106 5.16108 27.3094 5.33988 27.5272 5.5398C27.7547 5.75564 27.7177 5.73481 27.8087 5.83381C28.0193 6.0182 28.1973 6.21076 28.3798 6.41217C28.5567 6.61359 28.8018 6.89384 29.0189 7.14183ZM28.1147 28.6165C28.1095 28.6235 28.1223 28.6131 28.1478 28.5904C28.0832 28.6586 27.9239 28.7895 28.1147 28.6165ZM28.1796 28.5535C28.4467 28.3068 28.7686 27.9081 28.9553 27.7214C29.0031 27.669 28.9064 27.7628 28.9824 27.6763C29.0863 27.5615 29.2216 27.4356 29.3885 27.226C29.4198 27.2297 29.0526 27.6138 29.046 27.6393C28.9074 27.7903 28.8396 27.8641 28.7818 27.9359C28.4922 28.2398 28.4482 28.3274 28.2131 28.5409C28.2703 28.4795 28.1672 28.5755 28.1796 28.5535Z" fill="url(#paint18_linear_47_145)"/>
<path d="M16.9991 31.5951C24.9865 31.5951 31.4615 25.12 31.4615 17.1326C31.4615 9.14523 24.9865 2.67017 16.9991 2.67017C9.01167 2.67017 2.53662 9.14523 2.53662 17.1326C2.53662 25.12 9.01167 31.5951 16.9991 31.5951Z" fill="url(#paint19_linear_47_145)"/>
<path d="M20.7239 8.61865H13.1322C10.5541 8.61865 8.45667 10.7163 8.45667 13.2943V20.886C8.45667 23.4642 10.5541 25.5616 13.1322 25.5616H20.7239C23.3022 25.5616 25.3997 23.464 25.3997 20.886V13.2943C25.3998 10.7161 23.3022 8.61865 20.7239 8.61865ZM23.8965 20.886C23.8965 22.6352 22.4733 24.0583 20.724 24.0583H13.1322C11.3829 24.0585 9.95983 22.6352 9.95983 20.886V13.2943C9.95983 11.545 11.3829 10.122 13.1322 10.122H20.7239C22.4731 10.122 23.8963 11.5452 23.8963 13.2943L23.8965 20.886Z" fill="white"/>
<path d="M16.9283 12.7241C14.5211 12.7241 12.5625 14.6825 12.5625 17.09C12.5625 19.4972 14.5209 21.4555 16.9283 21.4555C19.3356 21.4555 21.2942 19.4972 21.2942 17.09C21.2942 14.6825 19.3357 12.7241 16.9283 12.7241ZM16.9283 19.9521C15.35 19.9521 14.0658 18.668 14.0658 17.0898C14.0658 15.5113 15.3499 14.2273 16.9283 14.2273C18.5068 14.2273 19.7909 15.5113 19.7909 17.0898C19.7909 18.6682 18.5067 19.9521 16.9283 19.9521Z" fill="white"/>
<path d="M21.4773 11.4497C21.1876 11.4497 20.9031 11.567 20.6986 11.7725C20.4931 11.9769 20.3749 12.2615 20.3749 12.5521C20.3749 12.8419 20.4931 13.1264 20.6986 13.3317C20.903 13.5361 21.1876 13.6545 21.4773 13.6545C21.7679 13.6545 22.0515 13.5363 22.2569 13.3317C22.4624 13.1262 22.5797 12.8416 22.5797 12.5521C22.5797 12.2615 22.4624 11.9769 22.2569 11.7725C22.0525 11.567 21.7679 11.4497 21.4773 11.4497Z" fill="white"/>
<defs>
<linearGradient id="paint0_linear_47_145" x1="31.7173" y1="22.2944" x2="32.2779" y2="22.2944" gradientUnits="userSpaceOnUse">
<stop offset="0.0189" stop-color="#FFCB46"/>
<stop offset="0.1162" stop-color="#FF9454"/>
<stop offset="0.4135" stop-color="#FF287D"/>
<stop offset="0.7162" stop-color="#D5329C"/>
<stop offset="0.9595" stop-color="#CF2E9E"/>
</linearGradient>
<linearGradient id="paint1_linear_47_145" x1="31.8557" y1="22.8153" x2="31.9589" y2="22.8153" gradientUnits="userSpaceOnUse">
<stop offset="0.0189" stop-color="#FFCB46"/>
<stop offset="0.1162" stop-color="#FF9454"/>
<stop offset="0.4135" stop-color="#FF287D"/>
<stop offset="0.7162" stop-color="#D5329C"/>
<stop offset="0.9595" stop-color="#CF2E9E"/>
</linearGradient>
<linearGradient id="paint2_linear_47_145" x1="31.8175" y1="22.3221" x2="31.9501" y2="22.3221" gradientUnits="userSpaceOnUse">
<stop offset="0.0189" stop-color="#FFCB46"/>
<stop offset="0.1162" stop-color="#FF9454"/>
<stop offset="0.4135" stop-color="#FF287D"/>
<stop offset="0.7162" stop-color="#D5329C"/>
<stop offset="0.9595" stop-color="#CF2E9E"/>
</linearGradient>
<linearGradient id="paint3_linear_47_145" x1="31.9445" y1="22.4086" x2="32.1144" y2="22.4086" gradientUnits="userSpaceOnUse">
<stop offset="0.0189" stop-color="#FFCB46"/>
<stop offset="0.1162" stop-color="#FF9454"/>
<stop offset="0.4135" stop-color="#FF287D"/>
<stop offset="0.7162" stop-color="#D5329C"/>
<stop offset="0.9595" stop-color="#CF2E9E"/>
</linearGradient>
<linearGradient id="paint4_linear_47_145" x1="32.0331" y1="22.2161" x2="32.2107" y2="22.2161" gradientUnits="userSpaceOnUse">
<stop offset="0.0189" stop-color="#FFCB46"/>
<stop offset="0.1162" stop-color="#FF9454"/>
<stop offset="0.4135" stop-color="#FF287D"/>
<stop offset="0.7162" stop-color="#D5329C"/>
<stop offset="0.9595" stop-color="#CF2E9E"/>
</linearGradient>
<linearGradient id="paint5_linear_47_145" x1="31.9273" y1="21.959" x2="32.0273" y2="21.959" gradientUnits="userSpaceOnUse">
<stop offset="0.0189" stop-color="#FFCB46"/>
<stop offset="0.1162" stop-color="#FF9454"/>
<stop offset="0.4135" stop-color="#FF287D"/>
<stop offset="0.7162" stop-color="#D5329C"/>
<stop offset="0.9595" stop-color="#CF2E9E"/>
</linearGradient>
<linearGradient id="paint6_linear_47_145" x1="32.0258" y1="21.5212" x2="32.2502" y2="21.5212" gradientUnits="userSpaceOnUse">
<stop offset="0.0189" stop-color="#FFCB46"/>
<stop offset="0.1162" stop-color="#FF9454"/>
<stop offset="0.4135" stop-color="#FF287D"/>
<stop offset="0.7162" stop-color="#D5329C"/>
<stop offset="0.9595" stop-color="#CF2E9E"/>
</linearGradient>
<linearGradient id="paint7_linear_47_145" x1="32.2405" y1="21.526" x2="32.4255" y2="21.526" gradientUnits="userSpaceOnUse">
<stop offset="0.0189" stop-color="#FFCB46"/>
<stop offset="0.1162" stop-color="#FF9454"/>
<stop offset="0.4135" stop-color="#FF287D"/>
<stop offset="0.7162" stop-color="#D5329C"/>
<stop offset="0.9595" stop-color="#CF2E9E"/>
</linearGradient>
<linearGradient id="paint8_linear_47_145" x1="32.3191" y1="21.1367" x2="32.4041" y2="21.1367" gradientUnits="userSpaceOnUse">
<stop offset="0.0189" stop-color="#FFCB46"/>
<stop offset="0.1162" stop-color="#FF9454"/>
<stop offset="0.4135" stop-color="#FF287D"/>
<stop offset="0.7162" stop-color="#D5329C"/>
<stop offset="0.9595" stop-color="#CF2E9E"/>
</linearGradient>
<linearGradient id="paint9_linear_47_145" x1="32.4283" y1="20.7751" x2="32.5141" y2="20.7751" gradientUnits="userSpaceOnUse">
<stop offset="0.0189" stop-color="#FFCB46"/>
<stop offset="0.1162" stop-color="#FF9454"/>
<stop offset="0.4135" stop-color="#FF287D"/>
<stop offset="0.7162" stop-color="#D5329C"/>
<stop offset="0.9595" stop-color="#CF2E9E"/>
</linearGradient>
<linearGradient id="paint10_linear_47_145" x1="32.5399" y1="20.431" x2="32.6143" y2="20.431" gradientUnits="userSpaceOnUse">
<stop offset="0.0189" stop-color="#FFCB46"/>
<stop offset="0.1162" stop-color="#FF9454"/>
<stop offset="0.4135" stop-color="#FF287D"/>
<stop offset="0.7162" stop-color="#D5329C"/>
<stop offset="0.9595" stop-color="#CF2E9E"/>
</linearGradient>
<linearGradient id="paint11_linear_47_145" x1="32.5448" y1="19.818" x2="32.5916" y2="19.818" gradientUnits="userSpaceOnUse">
<stop offset="0.0189" stop-color="#FFCB46"/>
<stop offset="0.1162" stop-color="#FF9454"/>
<stop offset="0.4135" stop-color="#FF287D"/>
<stop offset="0.7162" stop-color="#D5329C"/>
<stop offset="0.9595" stop-color="#CF2E9E"/>
</linearGradient>
<linearGradient id="paint12_linear_47_145" x1="32.6097" y1="18.9093" x2="32.6824" y2="18.9093" gradientUnits="userSpaceOnUse">
<stop offset="0.0189" stop-color="#FFCB46"/>
<stop offset="0.1162" stop-color="#FF9454"/>
<stop offset="0.4135" stop-color="#FF287D"/>
<stop offset="0.7162" stop-color="#D5329C"/>
<stop offset="0.9595" stop-color="#CF2E9E"/>
</linearGradient>
<linearGradient id="paint13_linear_47_145" x1="32.6191" y1="18.9441" x2="32.6547" y2="18.9441" gradientUnits="userSpaceOnUse">
<stop offset="0.0189" stop-color="#FFCB46"/>
<stop offset="0.1162" stop-color="#FF9454"/>
<stop offset="0.4135" stop-color="#FF287D"/>
<stop offset="0.7162" stop-color="#D5329C"/>
<stop offset="0.9595" stop-color="#CF2E9E"/>
</linearGradient>
<linearGradient id="paint14_linear_47_145" x1="31.8452" y1="21.595" x2="32.4093" y2="21.595" gradientUnits="userSpaceOnUse">
<stop offset="0.0189" stop-color="#FFCB46"/>
<stop offset="0.1162" stop-color="#FF9454"/>
<stop offset="0.4135" stop-color="#FF287D"/>
<stop offset="0.7162" stop-color="#D5329C"/>
<stop offset="0.9595" stop-color="#CF2E9E"/>
</linearGradient>
<linearGradient id="paint15_linear_47_145" x1="32.1791" y1="21.8282" x2="32.2802" y2="21.8282" gradientUnits="userSpaceOnUse">
<stop offset="0.0189" stop-color="#FFCB46"/>
<stop offset="0.1162" stop-color="#FF9454"/>
<stop offset="0.4135" stop-color="#FF287D"/>
<stop offset="0.7162" stop-color="#D5329C"/>
<stop offset="0.9595" stop-color="#CF2E9E"/>
</linearGradient>
<linearGradient id="paint16_linear_47_145" x1="32.2911" y1="19.6993" x2="32.9021" y2="19.6993" gradientUnits="userSpaceOnUse">
<stop offset="0.0189" stop-color="#FFCB46"/>
<stop offset="0.1162" stop-color="#FF9454"/>
<stop offset="0.4135" stop-color="#FF287D"/>
<stop offset="0.7162" stop-color="#D5329C"/>
<stop offset="0.9595" stop-color="#CF2E9E"/>
</linearGradient>
<linearGradient id="paint17_linear_47_145" x1="32.6242" y1="18.823" x2="32.6557" y2="18.823" gradientUnits="userSpaceOnUse">
<stop offset="0.0189" stop-color="#FFCB46"/>
<stop offset="0.1162" stop-color="#FF9454"/>
<stop offset="0.4135" stop-color="#FF287D"/>
<stop offset="0.7162" stop-color="#D5329C"/>
<stop offset="0.9595" stop-color="#CF2E9E"/>
</linearGradient>
<linearGradient id="paint18_linear_47_145" x1="0.856865" y1="17.0899" x2="32.9996" y2="17.0899" gradientUnits="userSpaceOnUse">
<stop offset="0.0189" stop-color="#FFCB46"/>
<stop offset="0.1162" stop-color="#FF9454"/>
<stop offset="0.4135" stop-color="#FF287D"/>
<stop offset="0.7162" stop-color="#D5329C"/>
<stop offset="0.9595" stop-color="#CF2E9E"/>
</linearGradient>
<linearGradient id="paint19_linear_47_145" x1="5.91991" y1="26.4291" x2="28.0782" y2="7.83612" gradientUnits="userSpaceOnUse">
<stop offset="0.0189" stop-color="#FFCB46"/>
<stop offset="0.1162" stop-color="#FF9454"/>
<stop offset="0.4135" stop-color="#FF287D"/>
<stop offset="0.7162" stop-color="#D5329C"/>
<stop offset="0.9595" stop-color="#CF2E9E"/>
</linearGradient>
</defs>
</svg>
