<svg width="1440" height="28" viewBox="0 0 1440 28" fill="none" xmlns="http://www.w3.org/2000/svg">
<g clip-path="url(#clip0_30_201)">
<path d="M1423.39 -17L1440 45" stroke="#2B2868"/>
<path d="M1406.77 -17L1423.39 45" stroke="#2B2868"/>
<path d="M1390.16 -17L1406.77 45" stroke="#2B2868"/>
<path d="M1373.55 -17L1390.16 45" stroke="#2B2868"/>
<path d="M1356.94 -17L1373.55 45" stroke="#2B2868"/>
<path d="M1340.32 -17L1356.94 45" stroke="#2B2868"/>
<path d="M1323.71 -17L1340.32 45" stroke="#2B2868"/>
<path d="M1307.1 -17L1323.71 45" stroke="#2B2868"/>
<path d="M1290.48 -17L1307.1 45" stroke="#2B2868"/>
<path d="M1273.87 -17L1290.48 45" stroke="#2B2868"/>
<path d="M1257.26 -17L1273.87 45" stroke="#2B2868"/>
<path d="M1240.65 -17L1257.26 45" stroke="#2B2868"/>
<path d="M1224.03 -17L1240.65 45" stroke="#2B2868"/>
<path d="M1207.42 -17L1224.03 45" stroke="#2B2868"/>
<path d="M1190.81 -17L1207.42 45" stroke="#2B2868"/>
<path d="M1174.2 -17L1190.81 45" stroke="#2B2868"/>
<path d="M1157.58 -17L1174.2 45" stroke="#2B2868"/>
<path d="M1140.97 -17L1157.58 45" stroke="#2B2868"/>
<path d="M1124.36 -17L1140.97 45" stroke="#2B2868"/>
<path d="M1107.74 -17L1124.36 45" stroke="#2B2868"/>
<path d="M1091.13 -17L1107.74 45" stroke="#2B2868"/>
<path d="M1074.52 -17L1091.13 45" stroke="#2B2868"/>
<path d="M1057.91 -17L1074.52 45" stroke="#2B2868"/>
<path d="M1041.29 -17L1057.91 45" stroke="#2B2868"/>
<path d="M1024.68 -17L1041.29 45" stroke="#2B2868"/>
<path d="M1008.07 -17L1024.68 45" stroke="#2B2868"/>
<path d="M991.455 -17L1008.07 45" stroke="#2B2868"/>
<path d="M974.842 -17L991.455 45" stroke="#2B2868"/>
<path d="M958.229 -17L974.842 45" stroke="#2B2868"/>
<path d="M941.616 -17L958.229 45" stroke="#2B2868"/>
<path d="M925.003 -17L941.616 45" stroke="#2B2868"/>
<path d="M908.391 -17L925.003 45" stroke="#2B2868"/>
<path d="M891.778 -17L908.391 45" stroke="#2B2868"/>
<path d="M875.165 -17L891.778 45" stroke="#2B2868"/>
<path d="M858.552 -17L875.165 45" stroke="#2B2868"/>
<path d="M841.939 -17L858.552 45" stroke="#2B2868"/>
<path d="M825.327 -17L841.939 45" stroke="#2B2868"/>
<path d="M808.714 -17L825.327 45" stroke="#2B2868"/>
<path d="M792.101 -17L808.714 45" stroke="#2B2868"/>
<path d="M775.488 -17L792.101 45" stroke="#2B2868"/>
<path d="M758.875 -17L775.488 45" stroke="#2B2868"/>
<path d="M742.263 -17L758.875 45" stroke="#2B2868"/>
<path d="M725.65 -17L742.263 45" stroke="#2B2868"/>
<path d="M709.037 -17L725.65 45" stroke="#2B2868"/>
<path d="M692.424 -17L709.037 45" stroke="#2B2868"/>
<path d="M675.812 -17L692.424 45" stroke="#2B2868"/>
<path d="M659.199 -17L675.812 45" stroke="#2B2868"/>
<path d="M642.586 -17L659.199 45" stroke="#2B2868"/>
<path d="M625.973 -17L642.586 45" stroke="#2B2868"/>
<path d="M609.36 -17L625.973 45" stroke="#2B2868"/>
<path d="M592.748 -17L609.36 45" stroke="#2B2868"/>
<path d="M576.135 -17L592.748 45" stroke="#2B2868"/>
<path d="M559.522 -17L576.135 45" stroke="#2B2868"/>
<path d="M542.909 -17L559.522 45" stroke="#2B2868"/>
<path d="M526.296 -17L542.909 45" stroke="#2B2868"/>
<path d="M509.684 -17L526.296 45" stroke="#2B2868"/>
<path d="M493.071 -17L509.684 45" stroke="#2B2868"/>
<path d="M476.458 -17L493.071 45" stroke="#2B2868"/>
<path d="M459.845 -17L476.458 45" stroke="#2B2868"/>
<path d="M443.232 -17L459.845 45" stroke="#2B2868"/>
<path d="M426.62 -17L443.232 45" stroke="#2B2868"/>
<path d="M410.007 -17L426.62 45" stroke="#2B2868"/>
<path d="M393.394 -17L410.007 45" stroke="#2B2868"/>
<path d="M376.781 -17L393.394 45" stroke="#2B2868"/>
<path d="M360.168 -17L376.781 45" stroke="#2B2868"/>
<path d="M343.556 -17L360.168 45" stroke="#2B2868"/>
<path d="M326.943 -17L343.556 45" stroke="#2B2868"/>
<path d="M310.33 -17L326.943 45" stroke="#2B2868"/>
<path d="M293.717 -17L310.33 45" stroke="#2B2868"/>
<path d="M277.104 -17L293.717 45" stroke="#2B2868"/>
<path d="M260.492 -17L277.104 45" stroke="#2B2868"/>
<path d="M243.879 -17L260.492 45" stroke="#2B2868"/>
<path d="M227.266 -17L243.879 45" stroke="#2B2868"/>
<path d="M210.653 -17L227.266 45" stroke="#2B2868"/>
<path d="M194.041 -17L210.653 45" stroke="#2B2868"/>
<path d="M177.428 -17L194.041 45" stroke="#2B2868"/>
<path d="M160.815 -17L177.428 45" stroke="#2B2868"/>
<path d="M144.202 -17L160.815 45" stroke="#2B2868"/>
<path d="M127.589 -17L144.202 45" stroke="#2B2868"/>
<path d="M110.977 -17L127.589 45" stroke="#2B2868"/>
<path d="M94.3638 -17L110.977 45" stroke="#2B2868"/>
<path d="M77.751 -17L94.3638 45" stroke="#2B2868"/>
<path d="M61.1382 -17L77.751 45" stroke="#2B2868"/>
<path d="M44.5254 -17L61.1382 45" stroke="#2B2868"/>
<path d="M27.9126 -17L44.5254 45" stroke="#2B2868"/>
<path d="M11.2998 -17L27.9126 45" stroke="#2B2868"/>
<path d="M-5.31299 -17L11.2998 45" stroke="#2B2868"/>
</g>
<defs>
<clipPath id="clip0_30_201">
<rect width="1440" height="28" fill="white" transform="matrix(-1 0 0 1 1440 0)"/>
</clipPath>
</defs>
</svg>
