<svg width="1440" height="27" viewBox="0 0 1440 27" fill="none" xmlns="http://www.w3.org/2000/svg">
<g clip-path="url(#clip0_30_298)">
<path d="M11.6128 -17.5L-5 44.5" stroke="#2B2868"/>
<path d="M28.2256 -17.5L11.6128 44.5" stroke="#2B2868"/>
<path d="M44.8384 -17.5L28.2256 44.5" stroke="#2B2868"/>
<path d="M61.4512 -17.5L44.8384 44.5" stroke="#2B2868"/>
<path d="M78.064 -17.5L61.4512 44.5" stroke="#2B2868"/>
<path d="M94.6768 -17.5L78.064 44.5" stroke="#2B2868"/>
<path d="M111.29 -17.5L94.6768 44.5" stroke="#2B2868"/>
<path d="M127.902 -17.5L111.29 44.5" stroke="#2B2868"/>
<path d="M144.515 -17.5L127.902 44.5" stroke="#2B2868"/>
<path d="M161.128 -17.5L144.515 44.5" stroke="#2B2868"/>
<path d="M177.741 -17.5L161.128 44.5" stroke="#2B2868"/>
<path d="M194.354 -17.5L177.741 44.5" stroke="#2B2868"/>
<path d="M210.966 -17.5L194.354 44.5" stroke="#2B2868"/>
<path d="M227.579 -17.5L210.966 44.5" stroke="#2B2868"/>
<path d="M244.192 -17.5L227.579 44.5" stroke="#2B2868"/>
<path d="M260.805 -17.5L244.192 44.5" stroke="#2B2868"/>
<path d="M277.417 -17.5L260.805 44.5" stroke="#2B2868"/>
<path d="M294.03 -17.5L277.417 44.5" stroke="#2B2868"/>
<path d="M310.643 -17.5L294.03 44.5" stroke="#2B2868"/>
<path d="M327.256 -17.5L310.643 44.5" stroke="#2B2868"/>
<path d="M343.869 -17.5L327.256 44.5" stroke="#2B2868"/>
<path d="M360.481 -17.5L343.869 44.5" stroke="#2B2868"/>
<path d="M377.094 -17.5L360.481 44.5" stroke="#2B2868"/>
<path d="M393.707 -17.5L377.094 44.5" stroke="#2B2868"/>
<path d="M410.32 -17.5L393.707 44.5" stroke="#2B2868"/>
<path d="M426.933 -17.5L410.32 44.5" stroke="#2B2868"/>
<path d="M443.545 -17.5L426.933 44.5" stroke="#2B2868"/>
<path d="M460.158 -17.5L443.545 44.5" stroke="#2B2868"/>
<path d="M476.771 -17.5L460.158 44.5" stroke="#2B2868"/>
<path d="M493.384 -17.5L476.771 44.5" stroke="#2B2868"/>
<path d="M509.997 -17.5L493.384 44.5" stroke="#2B2868"/>
<path d="M526.609 -17.5L509.997 44.5" stroke="#2B2868"/>
<path d="M543.222 -17.5L526.609 44.5" stroke="#2B2868"/>
<path d="M559.835 -17.5L543.222 44.5" stroke="#2B2868"/>
<path d="M576.448 -17.5L559.835 44.5" stroke="#2B2868"/>
<path d="M593.061 -17.5L576.448 44.5" stroke="#2B2868"/>
<path d="M609.673 -17.5L593.061 44.5" stroke="#2B2868"/>
<path d="M626.286 -17.5L609.673 44.5" stroke="#2B2868"/>
<path d="M642.899 -17.5L626.286 44.5" stroke="#2B2868"/>
<path d="M659.512 -17.5L642.899 44.5" stroke="#2B2868"/>
<path d="M676.125 -17.5L659.512 44.5" stroke="#2B2868"/>
<path d="M692.737 -17.5L676.125 44.5" stroke="#2B2868"/>
<path d="M709.35 -17.5L692.737 44.5" stroke="#2B2868"/>
<path d="M725.963 -17.5L709.35 44.5" stroke="#2B2868"/>
<path d="M742.576 -17.5L725.963 44.5" stroke="#2B2868"/>
<path d="M759.188 -17.5L742.576 44.5" stroke="#2B2868"/>
<path d="M775.801 -17.5L759.188 44.5" stroke="#2B2868"/>
<path d="M792.414 -17.5L775.801 44.5" stroke="#2B2868"/>
<path d="M809.027 -17.5L792.414 44.5" stroke="#2B2868"/>
<path d="M825.64 -17.5L809.027 44.5" stroke="#2B2868"/>
<path d="M842.252 -17.5L825.64 44.5" stroke="#2B2868"/>
<path d="M858.865 -17.5L842.252 44.5" stroke="#2B2868"/>
<path d="M875.478 -17.5L858.865 44.5" stroke="#2B2868"/>
<path d="M892.091 -17.5L875.478 44.5" stroke="#2B2868"/>
<path d="M908.704 -17.5L892.091 44.5" stroke="#2B2868"/>
<path d="M925.316 -17.5L908.704 44.5" stroke="#2B2868"/>
<path d="M941.929 -17.5L925.316 44.5" stroke="#2B2868"/>
<path d="M958.542 -17.5L941.929 44.5" stroke="#2B2868"/>
<path d="M975.155 -17.5L958.542 44.5" stroke="#2B2868"/>
<path d="M991.768 -17.5L975.155 44.5" stroke="#2B2868"/>
<path d="M1008.38 -17.5L991.768 44.5" stroke="#2B2868"/>
<path d="M1024.99 -17.5L1008.38 44.5" stroke="#2B2868"/>
<path d="M1041.61 -17.5L1024.99 44.5" stroke="#2B2868"/>
<path d="M1058.22 -17.5L1041.61 44.5" stroke="#2B2868"/>
<path d="M1074.83 -17.5L1058.22 44.5" stroke="#2B2868"/>
<path d="M1091.44 -17.5L1074.83 44.5" stroke="#2B2868"/>
<path d="M1108.06 -17.5L1091.44 44.5" stroke="#2B2868"/>
<path d="M1124.67 -17.5L1108.06 44.5" stroke="#2B2868"/>
<path d="M1141.28 -17.5L1124.67 44.5" stroke="#2B2868"/>
<path d="M1157.9 -17.5L1141.28 44.5" stroke="#2B2868"/>
<path d="M1174.51 -17.5L1157.9 44.5" stroke="#2B2868"/>
<path d="M1191.12 -17.5L1174.51 44.5" stroke="#2B2868"/>
<path d="M1207.73 -17.5L1191.12 44.5" stroke="#2B2868"/>
<path d="M1224.35 -17.5L1207.73 44.5" stroke="#2B2868"/>
<path d="M1240.96 -17.5L1224.35 44.5" stroke="#2B2868"/>
<path d="M1257.57 -17.5L1240.96 44.5" stroke="#2B2868"/>
<path d="M1274.19 -17.5L1257.57 44.5" stroke="#2B2868"/>
<path d="M1290.8 -17.5L1274.19 44.5" stroke="#2B2868"/>
<path d="M1307.41 -17.5L1290.8 44.5" stroke="#2B2868"/>
<path d="M1324.02 -17.5L1307.41 44.5" stroke="#2B2868"/>
<path d="M1340.64 -17.5L1324.02 44.5" stroke="#2B2868"/>
<path d="M1357.25 -17.5L1340.64 44.5" stroke="#2B2868"/>
<path d="M1373.86 -17.5L1357.25 44.5" stroke="#2B2868"/>
<path d="M1390.47 -17.5L1373.86 44.5" stroke="#2B2868"/>
<path d="M1407.09 -17.5L1390.47 44.5" stroke="#2B2868"/>
<path d="M1423.7 -17.5L1407.09 44.5" stroke="#2B2868"/>
<path d="M1440.31 -17.5L1423.7 44.5" stroke="#2B2868"/>
<path d="M1456.93 -17.5L1440.31 44.5" stroke="#2B2868"/>
</g>
<defs>
<clipPath id="clip0_30_298">
<rect width="1445" height="27" fill="white" transform="translate(-5)"/>
</clipPath>
</defs>
</svg>
