<svg width="146" height="146" viewBox="0 0 146 146" fill="none" xmlns="http://www.w3.org/2000/svg">
<rect x="4" y="4" width="138" height="138" rx="69" fill="#E8EFFF"/>
<rect x="4" y="4" width="138" height="138" rx="69" stroke="#FAFAF7" stroke-width="8"/>
<circle cx="73" cy="73" r="61.5707" stroke="white" stroke-width="2.21212"/>
<path d="M54.8418 108.607C55.5208 108.964 56.0818 109.397 56.5246 109.907C56.9542 110.421 57.2596 110.992 57.4406 111.621C57.613 112.244 57.6549 112.904 57.5664 113.602C57.4645 114.304 57.2217 115.02 56.8378 115.751C56.4311 116.526 55.9546 117.159 55.4084 117.649C54.8489 118.144 54.2439 118.492 53.5934 118.695C52.9384 118.906 52.2599 118.972 51.5578 118.892C50.847 118.808 50.1261 118.574 49.3948 118.19C48.5853 117.765 47.9356 117.257 47.446 116.667C46.943 116.081 46.617 115.443 46.4679 114.755C46.3143 114.074 46.3655 113.374 46.6216 112.653L48.3844 113.579C48.2974 113.977 48.3138 114.369 48.4337 114.754C48.5404 115.143 48.7399 115.503 49.0324 115.834C49.3249 116.166 49.7106 116.457 50.1893 116.708C50.8422 117.051 51.4704 117.197 52.0739 117.148C52.6773 117.098 53.2314 116.878 53.736 116.488C54.2407 116.098 54.6735 115.559 55.0346 114.871C55.3179 114.331 55.4996 113.816 55.5797 113.325C55.6511 112.83 55.6338 112.365 55.5281 111.932C55.4177 111.508 55.2209 111.121 54.9375 110.773C54.6496 110.433 54.275 110.142 53.8136 109.9C53.2652 109.612 52.7295 109.458 52.2066 109.439C51.6836 109.42 51.2109 109.527 50.7885 109.761C50.3616 110.003 50.0178 110.372 49.7573 110.868L49.5037 111.351L49.3101 110.8L52.692 112.575L52.0271 113.842L47.1828 111.299L49.8836 106.154L51.2677 106.881L50.4885 108.587L50.5669 108.628C50.9022 108.349 51.3061 108.161 51.7786 108.065C52.2465 107.978 52.7456 107.979 53.2759 108.068C53.8063 108.158 54.3282 108.338 54.8418 108.607ZM45.9759 102.756C46.5658 103.291 46.9594 103.867 47.1566 104.484C47.3399 105.101 47.3394 105.731 47.155 106.374C46.964 107.023 46.5978 107.647 46.0562 108.244C45.4949 108.863 44.9002 109.299 44.2722 109.553C43.6377 109.814 43.0042 109.883 42.3718 109.761C41.7394 109.638 41.1428 109.323 40.582 108.814C39.9411 108.233 39.5454 107.616 39.3952 106.962C39.231 106.309 39.2824 105.652 39.5494 104.992C39.8164 104.331 40.2696 103.707 40.9091 103.119L44.9513 106.784C45.2881 106.413 45.5138 106.047 45.6284 105.686C45.7291 105.326 45.7333 104.985 45.641 104.662C45.5348 104.34 45.336 104.047 45.0447 103.783C44.7024 103.473 44.3596 103.295 44.0163 103.249C43.6657 103.196 43.345 103.257 43.0542 103.432L41.7651 102.263C42.1668 101.937 42.6097 101.741 43.0937 101.676C43.5711 101.618 44.0579 101.681 44.5542 101.865C45.0504 102.05 45.5243 102.347 45.9759 102.756ZM44.2875 107.516L44.2789 107.767L41.3183 105.083L41.5881 105.048C41.2499 105.392 41.0331 105.726 40.9376 106.051C40.8421 106.376 40.8468 106.686 40.9517 106.98C41.0565 107.274 41.2437 107.543 41.5132 107.788C41.7899 108.039 42.0831 108.198 42.3927 108.267C42.7023 108.335 43.021 108.305 43.3489 108.178C43.6702 108.058 43.983 107.837 44.2875 107.516ZM40.7215 97.3534C41.1098 97.8485 41.2851 98.3109 41.2472 98.7404C41.1955 99.1684 40.9105 99.5856 40.3922 99.9921L36.8762 102.75L37.7682 103.887L36.5963 104.806L35.7043 103.669L33.9637 105.035L32.6752 103.702L34.5666 102.219L33.5472 100.919L34.7191 99.9999L35.7385 101.3L38.9876 98.751C39.1964 98.5872 39.307 98.4255 39.3193 98.2659C39.3177 98.1047 39.2442 97.9312 39.0985 97.7455L38.516 97.0029L39.7112 96.0654L40.7215 97.3534ZM35.7419 87.865C35.9017 88.2457 35.9893 88.6194 36.0047 88.9862C36.011 89.3568 35.953 89.701 35.8306 90.019C35.7044 90.3279 35.5217 90.5912 35.2825 90.8089L35.3225 90.9041L36.6564 90.424L37.3358 92.0421L27.4232 96.2041L26.7095 94.5044L30.7072 92.8259L30.673 92.7443C30.1731 92.7729 29.7042 92.6339 29.2663 92.3273C28.8192 92.0245 28.4758 91.5875 28.236 91.0164C28.0495 90.5723 27.9663 90.1327 27.9863 89.6978C28.0063 89.2629 28.1242 88.8455 28.3402 88.4456C28.5471 88.0495 28.8532 87.6864 29.2584 87.3563C29.6598 87.0171 30.1551 86.7238 30.7444 86.4764C31.5239 86.1491 32.248 85.9944 32.9166 86.0122C33.5814 86.021 34.1567 86.1847 34.6423 86.5032C35.128 86.8218 35.4945 87.2757 35.7419 87.865ZM34.6233 89.0864C34.4558 88.6875 34.2179 88.3875 33.9095 88.1865C33.6012 87.9854 33.2417 87.8911 32.831 87.9035C32.4075 87.9107 31.9556 88.0152 31.4751 88.2169C31.1125 88.3692 30.8033 88.547 30.5475 88.7504C30.2879 88.9447 30.0907 89.1608 29.956 89.3986C29.8122 89.6402 29.7335 89.8972 29.7198 90.1695C29.6971 90.4456 29.7486 90.7332 29.8742 91.0324C30.0417 91.4313 30.2731 91.7286 30.5686 91.9244C30.855 92.1241 31.1809 92.2272 31.5462 92.2337C31.9024 92.2441 32.2619 92.1732 32.6245 92.0209L33.3995 91.6955C33.7712 91.5394 34.0761 91.3261 34.3144 91.0555C34.5436 90.7886 34.6936 90.4857 34.7646 90.1467C34.8264 89.8115 34.7793 89.458 34.6233 89.0864ZM33.4205 79.9971C33.5618 80.7809 33.5225 81.4773 33.3026 82.0864C33.0713 82.6875 32.6867 83.1864 32.1488 83.5831C31.6012 83.9815 30.9308 84.2522 30.1374 84.3952C29.3149 84.5435 28.5776 84.5266 27.9254 84.3444C27.2635 84.1641 26.7192 83.8326 26.2926 83.3501C25.8659 82.8675 25.5854 82.2537 25.4511 81.5087C25.2976 80.6573 25.3607 79.9266 25.6404 79.3167C25.9086 78.6989 26.3499 78.2098 26.9643 77.8493C27.5786 77.4888 28.3185 77.2705 29.1839 77.1944L30.152 82.5644C30.6454 82.4755 31.0475 82.323 31.3583 82.1072C31.6576 81.8834 31.869 81.6155 31.9926 81.3035C32.1048 80.9836 32.126 80.6301 32.0562 80.2431C31.9742 79.7883 31.8112 79.4381 31.5671 79.1924C31.3212 78.937 31.03 78.7897 30.6932 78.7505L30.3845 77.0379C30.9016 77.0246 31.3719 77.1396 31.7954 77.383C32.2092 77.6281 32.5564 77.9751 32.8372 78.424C33.1179 78.8729 33.3123 79.3973 33.4205 79.9971ZM29.1796 82.7397L29.0197 82.9334L28.3106 79.0002L28.5452 79.1377C28.0676 79.2038 27.6919 79.3365 27.4181 79.5357C27.1444 79.7349 26.9593 79.9831 26.863 80.2802C26.7667 80.5772 26.7508 80.9048 26.8154 81.2628C26.8817 81.6305 27.0166 81.9358 27.2203 82.1788C27.4239 82.4218 27.6945 82.5928 28.0321 82.6918C28.3599 82.7926 28.7424 82.8085 29.1796 82.7397ZM32.7932 72.1371C32.7823 72.6581 32.7135 73.1237 32.5868 73.5341C32.4506 73.9344 32.2712 74.2797 32.0488 74.5701C31.8167 74.8504 31.5465 75.0709 31.2383 75.2316C30.9204 75.3822 30.5697 75.4584 30.1862 75.4602L30.2243 73.6466C30.51 73.6231 30.7428 73.5445 30.9226 73.4106C31.1024 73.2767 31.239 73.0976 31.3322 72.8734C31.4158 72.6392 31.4608 72.3697 31.4672 72.065C31.4771 71.5931 31.401 71.2375 31.2389 70.9981C31.0671 70.7486 30.8289 70.6207 30.5242 70.6143C30.2784 70.6091 30.0904 70.6642 29.9602 70.7794C29.8203 70.8847 29.7134 71.0594 29.6394 71.3037C29.5558 71.538 29.4802 71.856 29.4128 72.2577C29.3004 72.9241 29.156 73.4766 28.9796 73.9155C28.7934 74.3541 28.5456 74.6783 28.2364 74.8881C27.9271 75.0979 27.5218 75.1976 27.0205 75.187C26.529 75.1767 26.1043 75.035 25.7462 74.7619C25.3883 74.4791 25.1161 74.0947 24.9296 73.609C24.7333 73.123 24.6419 72.5605 24.6554 71.9216C24.6686 71.2925 24.7784 70.749 24.9847 70.2912C25.191 69.8333 25.4787 69.4805 25.8478 69.2326C26.2171 68.9748 26.6427 68.8412 27.1248 68.8317L27.0866 70.6452C26.831 70.6398 26.6233 70.6994 26.4633 70.8238C26.3036 70.9385 26.1822 71.0982 26.0992 71.303C26.0164 71.4979 25.9723 71.7281 25.9667 71.9934C25.958 72.4063 26.0396 72.7325 26.2116 72.9722C26.3737 73.2116 26.6022 73.3344 26.8971 73.3406C27.1134 73.3451 27.2915 73.2899 27.4316 73.1748C27.5621 73.0497 27.6696 72.8504 27.754 72.5768C27.8384 72.3033 27.9147 71.9509 27.9828 71.5196C28.0845 70.8924 28.2232 70.3741 28.399 69.9648C28.575 69.5456 28.8224 69.2362 29.1413 69.0364C29.4604 68.8267 29.8804 68.7274 30.4014 68.7384C30.9224 68.7493 31.3666 68.9013 31.7341 69.1942C32.092 69.4771 32.364 69.8712 32.55 70.3767C32.7262 70.8819 32.8073 71.4687 32.7932 72.1371ZM33.3902 64.7401C33.2743 65.3586 33.0423 65.7952 32.6944 66.0501C32.3387 66.2935 31.8371 66.3545 31.1897 66.233L26.7978 65.4094L26.5314 66.8299L25.0674 66.5554L25.3338 65.1349L23.1596 64.7271L23.3109 62.8799L25.6736 63.323L25.978 61.6996L27.442 61.9741L27.1376 63.5976L31.1961 64.3587C31.457 64.4076 31.6515 64.3841 31.7795 64.288C31.8997 64.1805 31.9815 64.0108 32.025 63.7789L32.199 62.8512L33.692 63.1312L33.3902 64.7401ZM35.6772 57.7466L27.8287 55.8413L28.6967 54.1651L32.8368 55.2461L34.8271 55.8284L34.8678 55.7498L33.2234 54.4997L29.9106 51.8209L30.8668 49.9744L34.973 51.1209L36.9561 51.7493L36.9967 51.6707L35.3527 50.3876L32.0874 47.6172L32.9148 46.0195L39.0001 51.3297L37.888 53.4774L34.2474 52.5222L32.2444 51.9002L32.2105 51.9657L33.8812 53.2294L36.7894 55.5989L35.6772 57.7466ZM42.9644 46.3149C42.5733 46.7565 42.1551 47.0953 41.7097 47.3312C41.2569 47.5606 40.7807 47.6905 40.2811 47.7207C39.788 47.7436 39.2918 47.6588 38.7926 47.4662C38.3 47.2662 37.8181 46.9576 37.3471 46.5404C36.7436 46.0058 36.3147 45.4224 36.0605 44.7901C35.8128 44.1504 35.7525 43.4993 35.8795 42.837C36.0065 42.1746 36.3405 41.538 36.8816 40.9271C37.2662 40.4929 37.6849 40.1611 38.1376 39.9316C38.5904 39.7022 39.0601 39.5798 39.5466 39.5642C40.0398 39.5413 40.5359 39.6262 41.0351 39.8188C41.527 40.0049 42.0121 40.3098 42.4905 40.7335C43.0866 41.2616 43.5085 41.8454 43.7562 42.4851C44.0104 43.1174 44.074 43.7648 43.947 44.4272C43.8265 45.0822 43.499 45.7114 42.9644 46.3149ZM41.8176 45.3188C42.0849 45.0171 42.2496 44.6902 42.3119 44.3382C42.3668 43.9796 42.3098 43.614 42.1409 43.2411C41.9647 42.8618 41.6705 42.4896 41.2584 42.1245C40.9493 41.8507 40.6444 41.6463 40.3437 41.5113C40.0421 41.3624 39.7517 41.2825 39.4725 41.2716C39.1932 41.2606 38.9316 41.3113 38.6877 41.4236C38.4438 41.5359 38.2208 41.7061 38.0187 41.9343C37.7514 42.236 37.5871 42.5698 37.5257 42.9357C37.4634 43.2877 37.5204 43.6534 37.6966 44.0328C37.8655 44.4056 38.1596 44.7778 38.5791 45.1494C38.8883 45.4232 39.1936 45.6345 39.4951 45.7834C39.7958 45.9184 40.0858 45.9914 40.365 46.0023C40.6369 46.0067 40.8949 45.9528 41.1388 45.8405C41.3892 45.7209 41.6155 45.547 41.8176 45.3188ZM46.5502 42.3336L41.705 36.1629L43.0157 35.1337L43.8959 36.1114L43.9423 36.075C43.7718 35.5713 43.7744 35.113 43.9501 34.7C44.1275 34.2732 44.4173 33.9019 44.8194 33.5862C44.889 33.5315 44.9508 33.483 45.005 33.4405C45.0668 33.3919 45.1248 33.3464 45.179 33.3039L46.2537 34.6726C46.2073 34.709 46.1493 34.7545 46.0797 34.8092C46.0117 34.85 45.9391 34.9008 45.8618 34.9615C45.4906 35.2529 45.2299 35.5577 45.0796 35.8757C44.9232 36.186 44.8673 36.5049 44.912 36.8323C44.9643 37.1537 45.1103 37.4829 45.3498 37.8198L48.0001 41.1952L46.5502 42.3336ZM51.1837 38.9149L46.1238 29.4292L47.7763 28.5477L50.7887 34.1949L51.0202 33.2189L52.0453 29.5632L54.0622 28.4874L52.8324 32.6367L57.8198 35.3751L55.907 36.3954L53.0615 34.8211L52.2634 34.3275L51.7465 35.9905L52.8362 38.0334L51.1837 38.9149ZM61.8075 34.3767C61.0431 34.6004 60.3465 34.6352 59.7175 34.4813C59.0952 34.3151 58.5583 33.9856 58.1068 33.4928C57.6525 32.9907 57.3122 32.3527 57.0857 31.579C56.851 30.7769 56.7896 30.0419 56.9015 29.3741C57.0106 28.6968 57.2824 28.1204 57.7169 27.6449C58.1515 27.1695 58.732 26.8254 59.4586 26.6128C60.2889 26.3698 61.0222 26.355 61.6583 26.5684C62.301 26.7695 62.8343 27.1564 63.2579 27.729C63.6816 28.3016 63.9772 29.0142 64.1447 29.8666L58.9078 31.3992C59.0486 31.8804 59.2428 32.264 59.4905 32.5501C59.7448 32.824 60.0336 33.0058 60.3569 33.0956C60.6869 33.1732 61.0407 33.1567 61.4181 33.0463C61.8616 32.9165 62.1925 32.7172 62.411 32.4484C62.6388 32.1768 62.7544 31.8716 62.7576 31.5326L64.4277 31.0438C64.4958 31.5566 64.4314 32.0364 64.2344 32.4833C64.0346 32.9208 63.7264 33.303 63.3098 33.6297C62.8933 33.9565 62.3925 34.2055 61.8075 34.3767ZM58.6303 30.4509L58.4207 30.3124L62.2564 29.1899L62.1446 29.4378C62.0281 28.9699 61.8563 28.6104 61.6292 28.3593C61.4021 28.1082 61.1357 27.9506 60.8301 27.8864C60.5244 27.8221 60.1971 27.8411 59.8479 27.9433C59.4894 28.0482 59.2001 28.2148 58.98 28.4431C58.76 28.6714 58.6187 28.9586 58.5561 29.3047C58.4907 29.6414 58.5154 30.0235 58.6303 30.4509ZM66.5668 33.0206L65.6746 25.2258L67.3302 25.0363L67.5674 26.3302L67.626 26.3235C67.7448 25.8053 67.9873 25.4163 68.3534 25.1567C68.7281 24.8862 69.1695 24.7219 69.6774 24.6637C69.7653 24.6537 69.8435 24.6447 69.9118 24.6369C69.99 24.6279 70.0632 24.6196 70.1316 24.6117L70.3295 26.3407C70.2709 26.3474 70.1977 26.3557 70.1097 26.3658C70.0305 26.365 69.942 26.3702 69.8443 26.3813C69.3755 26.435 68.9937 26.5579 68.699 26.7499C68.4032 26.9322 68.1885 27.1745 68.0549 27.4768C67.931 27.778 67.8828 28.1348 67.9102 28.5473L68.3982 32.8109L66.5668 33.0206ZM75.0545 32.8322C74.5341 32.8059 74.0707 32.7234 73.6642 32.5848C73.2681 32.4368 72.9282 32.2473 72.6445 32.0164C72.3712 31.7762 72.1588 31.4996 72.0072 31.1868C71.866 30.8647 71.8002 30.5119 71.8097 30.1284L73.6213 30.22C73.6364 30.5062 73.7082 30.7412 73.8367 30.9249C73.9652 31.1086 74.1402 31.2503 74.3616 31.3501C74.5933 31.4406 74.8613 31.4935 75.1657 31.5089C75.637 31.5327 75.9947 31.4671 76.2388 31.3121C76.4932 31.1478 76.6281 30.9134 76.6435 30.609C76.6559 30.3635 76.6064 30.174 76.4951 30.0404C76.394 29.8975 76.2225 29.7854 75.9805 29.7043C75.7488 29.6138 75.4331 29.5289 75.0335 29.4497C74.3708 29.3177 73.8227 29.1571 73.3893 28.9679C72.9564 28.7688 72.6396 28.5116 72.4389 28.1963C72.2383 27.881 72.1506 27.4729 72.176 26.9722C72.2008 26.4812 72.3549 26.0608 72.6384 25.7109C72.9317 25.3615 73.3239 25.1007 73.8149 24.9287C74.3065 24.7468 74.8714 24.672 75.5096 24.7042C76.1381 24.736 76.6781 24.8617 77.1296 25.0814C77.5812 25.3012 77.9255 25.5991 78.1624 25.9753C78.4091 26.352 78.5302 26.7815 78.5255 27.2636L76.7139 27.172C76.7268 26.9167 76.6734 26.7073 76.5537 26.5437C76.4438 26.3807 76.2877 26.2546 76.0855 26.1657C75.8931 26.0772 75.6643 26.0263 75.3992 26.0129C74.9868 25.992 74.6583 26.064 74.4137 26.2288C74.1696 26.3838 74.0401 26.6086 74.0252 26.9032C74.0143 27.1192 74.0643 27.299 74.1752 27.4424C74.2964 27.5765 74.4924 27.6898 74.7634 27.7822C75.0344 27.8747 75.3844 27.9613 75.8135 28.042C76.4374 28.1621 76.9514 28.3161 77.3553 28.5039C77.7691 28.6921 78.0712 28.9486 78.2615 29.2732C78.4616 29.5983 78.5485 30.0211 78.5222 30.5415C78.4959 31.0619 78.331 31.5015 78.0274 31.8603C77.7341 32.2097 77.3321 32.4699 76.8214 32.641C76.3112 32.8022 75.7222 32.866 75.0545 32.8322ZM83.4849 33.889L85.2758 27.775L84.087 27.4267L84.5057 25.9973L85.6945 26.3455L85.9681 25.4114C86.145 24.8076 86.4583 24.4025 86.9081 24.1961C87.3672 23.9926 87.9271 23.9875 88.5875 24.181L89.8896 24.5624L89.5248 25.8078L88.6615 25.5549C88.3878 25.4748 88.1764 25.4795 88.0273 25.569C87.8781 25.6584 87.769 25.8211 87.6999 26.057L87.4636 26.8637L88.9497 27.299L88.531 28.7284L87.0449 28.2932L85.254 34.4072L83.4849 33.889ZM90.7951 36.9717C90.2665 36.7099 89.83 36.3949 89.4857 36.0268C89.1458 35.65 88.8957 35.2244 88.7357 34.7501C88.5845 34.2802 88.5364 33.7792 88.5916 33.2469C88.6556 32.7191 88.8272 32.1732 89.1066 31.6094C89.4644 30.887 89.9152 30.3203 90.4589 29.9094C91.0114 29.5028 91.6239 29.2741 92.2964 29.2232C92.9689 29.1724 93.6708 29.328 94.4021 29.6903C94.9218 29.9477 95.3517 30.2649 95.6917 30.6418C96.0316 31.0187 96.2728 31.4399 96.4153 31.9054C96.5665 32.3753 96.6145 32.8764 96.5594 33.4086C96.5085 33.932 96.3413 34.48 96.0576 35.0527C95.7041 35.7663 95.2511 36.3264 94.6986 36.733C94.155 37.1439 93.5468 37.3748 92.8743 37.4257C92.2106 37.4809 91.5175 37.3296 90.7951 36.9717ZM91.4561 35.604C91.8173 35.7829 92.176 35.8564 92.532 35.8243C92.8924 35.7834 93.2304 35.6326 93.546 35.372C93.866 35.1026 94.1481 34.7212 94.3925 34.2279C94.5758 33.8579 94.6933 33.5101 94.7448 33.1845C94.8095 32.8545 94.8106 32.5533 94.748 32.2809C94.6855 32.0086 94.5681 31.7694 94.3958 31.5634C94.2236 31.3573 94.0009 31.1867 93.7278 31.0514C93.3666 30.8725 93.0014 30.8013 92.6322 30.8378C92.2761 30.8699 91.9382 31.0207 91.6182 31.2901C91.3026 31.5507 91.0204 31.932 90.7716 32.4342C90.5883 32.8042 90.4643 33.1542 90.3996 33.4843C90.3481 33.8098 90.3536 34.1088 90.4161 34.3812C90.4831 34.6447 90.6027 34.8795 90.7749 35.0855C90.956 35.2959 91.183 35.4687 91.4561 35.604ZM95.5769 39.3888L100.256 33.0913L101.594 34.0852L100.882 35.1915L100.929 35.2267C101.371 34.9298 101.813 34.8118 102.258 34.8727C102.716 34.9316 103.151 35.1135 103.561 35.4185C103.632 35.4712 103.695 35.5181 103.751 35.5592C103.814 35.6061 103.873 35.6501 103.928 35.6911L102.89 37.0879C102.843 37.0527 102.784 37.0088 102.713 36.956C102.655 36.9012 102.587 36.8445 102.508 36.7858C102.13 36.5044 101.767 36.3329 101.421 36.2716C101.08 36.2023 100.758 36.2323 100.454 36.3614C100.157 36.4965 99.8782 36.7238 99.6161 37.0436L97.0566 40.4882L95.5769 39.3888ZM100.402 46.6401L101.579 45.6805L102.138 46.3664C102.281 46.5417 102.425 46.6717 102.57 46.7563C102.715 46.841 102.872 46.8849 103.039 46.888C103.206 46.8911 103.391 46.861 103.593 46.7977L104.689 46.4377L104.083 46.9315L107.983 39.6248L109.269 41.2024L106.998 44.8598L106.163 46.1687L106.209 46.2259L107.641 45.6486L111.626 44.0947L112.874 45.6266L104.398 48.4626C103.892 48.6346 103.444 48.7077 103.055 48.6821C102.673 48.664 102.331 48.5558 102.03 48.3574C101.727 48.1728 101.439 47.9128 101.166 47.5775L100.402 46.6401ZM108.716 54.6038C108.446 54.0793 108.282 53.5667 108.223 53.0661C108.173 52.561 108.225 52.0701 108.378 51.5935C108.535 51.1255 108.794 50.6938 109.154 50.2983C109.519 49.9115 109.981 49.5742 110.541 49.2863C111.258 48.9174 111.957 48.729 112.638 48.7211C113.324 48.7219 113.953 48.9015 114.524 49.2599C115.096 49.6182 115.568 50.1602 115.941 50.8858C116.207 51.4016 116.364 51.912 116.414 52.4171C116.464 52.9222 116.408 53.4043 116.246 53.8635C116.089 54.3314 115.83 54.7631 115.47 55.1587C115.118 55.5497 114.658 55.8914 114.09 56.1838C113.382 56.5482 112.685 56.73 111.999 56.7291C111.317 56.737 110.691 56.5618 110.12 56.2035C109.553 55.8539 109.085 55.3206 108.716 54.6038ZM110.06 53.8957C110.244 54.2541 110.489 54.5261 110.795 54.7116C111.109 54.8926 111.471 54.972 111.879 54.9497C112.297 54.9228 112.75 54.7835 113.24 54.5315C113.607 54.3426 113.908 54.1325 114.143 53.9011C114.391 53.674 114.57 53.4322 114.682 53.1759C114.793 52.9196 114.841 52.6574 114.824 52.3894C114.808 52.1213 114.73 51.8518 114.591 51.5808C114.406 51.2224 114.155 50.9483 113.836 50.7585C113.53 50.5729 113.169 50.4936 112.751 50.5204C112.343 50.5427 111.889 50.6821 111.391 50.9385C111.024 51.1275 110.716 51.3355 110.468 51.5626C110.233 51.794 110.06 52.0379 109.949 52.2942C109.846 52.546 109.803 52.8059 109.82 53.074C109.84 53.3508 109.92 53.6246 110.06 53.8957ZM111.676 62.1343C111.53 61.5629 111.518 61.0431 111.642 60.575C111.766 60.1068 112.023 59.7059 112.414 59.3721C112.818 59.0453 113.343 58.7989 113.991 58.6329L118.705 57.4241L119.163 59.2098L114.92 60.2977C114.492 60.4076 114.14 60.5587 113.864 60.7511C113.598 60.9411 113.415 61.1759 113.314 61.4555C113.213 61.7351 113.212 62.0654 113.309 62.4463C113.407 62.8273 113.587 63.1314 113.848 63.3588C114.112 63.5956 114.42 63.75 114.773 63.8218C115.136 63.8911 115.518 63.8745 115.918 63.7719L120.06 62.7097L120.518 64.4953L112.919 66.444L112.479 64.7298L113.932 64.2811L113.91 64.1954C113.347 64.1368 112.87 63.9191 112.479 63.5423C112.09 63.175 111.823 62.7057 111.676 62.1343ZM113.226 68.3682L121.054 67.8341L121.167 69.4967L119.864 69.6743L119.868 69.7331C120.38 69.8756 120.758 70.1356 121 70.5132C121.253 70.9 121.397 71.3484 121.432 71.8585C121.438 71.9467 121.443 72.0252 121.448 72.0939C121.453 72.1723 121.458 72.2459 121.463 72.3146L119.727 72.433C119.723 72.3742 119.718 72.3006 119.712 72.2123C119.716 72.1332 119.715 72.0446 119.708 71.9465C119.676 71.4757 119.571 71.0887 119.393 70.7855C119.224 70.4817 118.992 70.2561 118.696 70.1087C118.401 69.9712 118.047 69.9067 117.633 69.9152L113.352 70.2073L113.226 68.3682ZM110.799 76.8382L120.912 78.8368L120.572 80.5584L119.154 80.3534L119.134 80.4547C119.565 80.7102 119.876 81.0874 120.068 81.5863C120.27 82.0872 120.311 82.6414 120.191 83.2491C120.097 83.7217 119.921 84.1328 119.661 84.4824C119.402 84.832 119.071 85.1123 118.668 85.3234C118.275 85.5364 117.819 85.6666 117.298 85.7141C116.776 85.7712 116.201 85.7378 115.574 85.6139C114.745 85.45 114.058 85.1739 113.513 84.7856C112.966 84.4071 112.581 83.95 112.356 83.4145C112.131 82.879 112.08 82.2978 112.204 81.6708C112.284 81.2657 112.42 80.9068 112.613 80.594C112.814 80.2831 113.055 80.03 113.334 79.8346C113.611 79.6488 113.91 79.5325 114.23 79.4855L114.247 79.3986L110.442 78.6467L110.799 76.8382ZM113.814 81.2825C113.731 81.7069 113.76 82.0886 113.904 82.4276C114.047 82.7666 114.293 83.0456 114.64 83.2647C114.996 83.4952 115.429 83.661 115.94 83.762C116.461 83.865 116.924 83.8813 117.328 83.8109C117.733 83.7406 118.065 83.5808 118.325 83.3314C118.585 83.0821 118.757 82.7452 118.841 82.3209C118.924 81.8965 118.899 81.5205 118.763 81.1931C118.637 80.8675 118.424 80.6 118.125 80.3905C117.835 80.1829 117.497 80.041 117.111 79.9648L116.287 79.8018C115.891 79.7236 115.519 79.7303 115.17 79.8217C114.831 79.915 114.538 80.0825 114.289 80.3241C114.051 80.5676 113.893 80.887 113.814 81.2825ZM111.254 86.3141L118.546 89.2095L117.931 90.7583L116.678 90.3562L116.656 90.411C117.057 90.7605 117.285 91.158 117.341 91.6033C117.403 92.0614 117.339 92.528 117.15 93.0032C117.118 93.0854 117.089 93.1585 117.063 93.2225C117.034 93.2956 117.007 93.3641 116.982 93.4281L115.364 92.7859C115.386 92.731 115.413 92.6625 115.446 92.5803C115.484 92.5108 115.521 92.4304 115.558 92.339C115.732 91.9004 115.804 91.5059 115.774 91.1554C115.753 90.8086 115.641 90.5049 115.437 90.2443C115.23 89.9929 114.939 89.7818 114.562 89.6112L110.574 88.0274L111.254 86.3141ZM107.116 94.2272C107.429 93.7268 107.785 93.3232 108.185 93.0166C108.593 92.7152 109.041 92.508 109.529 92.3952C110.011 92.2906 110.515 92.2919 111.039 92.3989C111.558 92.5143 112.084 92.7385 112.618 93.0717C113.302 93.4985 113.822 94.0026 114.178 94.5839C114.528 95.1735 114.696 95.8055 114.681 96.4798C114.665 97.1541 114.442 97.8373 114.01 98.5296C113.703 99.0217 113.345 99.4184 112.937 99.7199C112.528 100.021 112.085 100.22 111.608 100.316C111.126 100.421 110.622 100.42 110.098 100.313C109.582 100.211 109.053 99.9907 108.511 99.6523C107.835 99.2307 107.322 98.725 106.972 98.1354C106.616 97.5541 106.446 96.9263 106.461 96.252C106.471 95.5861 106.689 94.9111 107.116 94.2272ZM108.413 95.019C108.199 95.3609 108.091 95.7106 108.088 96.0681C108.094 96.4308 108.211 96.7819 108.439 97.1215C108.676 97.4663 109.028 97.7844 109.495 98.076C109.845 98.2946 110.18 98.4455 110.499 98.5287C110.821 98.6254 111.12 98.6559 111.398 98.6203C111.675 98.5847 111.924 98.4913 112.146 98.34C112.368 98.1888 112.56 97.9839 112.721 97.7253C112.935 97.3834 113.041 97.0269 113.041 96.6559C113.044 96.2984 112.927 95.9473 112.69 95.6025C112.462 95.2629 112.11 94.9447 111.634 94.648C111.284 94.4294 110.948 94.2717 110.626 94.175C110.307 94.0918 110.009 94.068 109.731 94.1036C109.463 94.1445 109.217 94.2405 108.995 94.3917C108.768 94.5513 108.574 94.7604 108.413 95.019ZM103.342 96.0619L104.358 96.9393L103.953 97.4079C103.76 97.6311 103.674 97.8361 103.694 98.0228C103.715 98.2095 103.852 98.4121 104.105 98.6306L110.197 103.895L108.992 105.29L102.877 100.006C102.527 99.7041 102.274 99.388 102.118 99.0578C101.955 98.7351 101.909 98.3969 101.981 98.0431C102.046 97.6968 102.246 97.3302 102.58 96.9434L103.342 96.0619ZM110.393 105.292C110.586 105.069 110.806 104.935 111.054 104.889C111.303 104.857 111.531 104.931 111.739 105.111C111.955 105.297 112.061 105.512 112.058 105.756C112.049 106.008 111.948 106.246 111.755 106.469C111.562 106.692 111.345 106.823 111.104 106.861C110.856 106.907 110.624 106.837 110.409 106.65C110.2 106.471 110.097 106.251 110.099 105.993C110.103 105.749 110.2 105.516 110.393 105.292ZM99.0925 103.578C99.6971 103.06 100.318 102.742 100.954 102.623C101.59 102.519 102.215 102.598 102.829 102.862C103.45 103.133 104.022 103.574 104.547 104.186C105.091 104.821 105.449 105.465 105.622 106.12C105.801 106.782 105.791 107.419 105.59 108.032C105.39 108.644 105.002 109.196 104.427 109.689C103.77 110.252 103.108 110.567 102.441 110.634C101.772 110.715 101.127 110.582 100.505 110.234C99.8834 109.887 99.3209 109.359 98.8175 108.651L102.96 105.1C102.634 104.719 102.299 104.449 101.956 104.29C101.611 104.145 101.273 104.098 100.942 104.149C100.609 104.215 100.293 104.375 99.9947 104.631C99.6439 104.932 99.4242 105.249 99.3357 105.584C99.2397 105.926 99.26 106.251 99.3965 106.562L98.0753 107.694C97.8023 107.255 97.6636 106.791 97.6593 106.303C97.6615 105.822 97.7852 105.347 98.0304 104.877C98.2757 104.408 98.6297 103.975 99.0925 103.578ZM103.603 105.85L103.851 105.89L100.817 108.491L100.817 108.219C101.116 108.597 101.42 108.854 101.73 108.99C102.041 109.125 102.348 109.159 102.653 109.092C102.958 109.025 103.249 108.873 103.525 108.636C103.809 108.393 104.004 108.122 104.111 107.824C104.217 107.525 104.228 107.205 104.142 106.864C104.064 106.53 103.884 106.192 103.603 105.85ZM92.1244 108.367C92.6329 108.088 93.139 107.917 93.6426 107.853C94.1509 107.799 94.641 107.844 95.1129 107.989C95.5896 108.142 96.0238 108.391 96.4154 108.737C96.8118 109.092 97.1566 109.536 97.4499 110.071C97.7431 110.605 97.9328 111.134 98.0189 111.659C98.0964 112.189 98.0694 112.691 97.938 113.167C97.8113 113.652 97.5818 114.092 97.2493 114.487C96.9216 114.891 96.4991 115.235 95.982 115.519C95.4131 115.831 94.8498 116 94.292 116.026C93.7303 116.065 93.2117 115.968 92.7364 115.736C92.2572 115.516 91.8632 115.166 91.5544 114.685L93.1317 113.82C93.3253 114.05 93.5427 114.211 93.7838 114.303C94.0163 114.4 94.264 114.432 94.5267 114.4C94.7856 114.381 95.04 114.303 95.29 114.166C95.5744 114.01 95.7936 113.817 95.9476 113.586C96.1063 113.365 96.2089 113.112 96.2552 112.829C96.293 112.55 96.2749 112.252 96.2012 111.933C96.1321 111.624 96.0053 111.301 95.8209 110.964C95.5513 110.473 95.2533 110.104 94.9271 109.857C94.6008 109.61 94.2611 109.471 93.9079 109.44C93.5508 109.423 93.1999 109.509 92.8552 109.699C92.5621 109.859 92.3362 110.051 92.1775 110.272C92.0102 110.499 91.9072 110.74 91.8686 110.997C91.8348 111.262 91.8669 111.525 91.9648 111.785L90.4005 112.644C90.1511 112.108 90.0623 111.568 90.1338 111.024C90.2015 110.493 90.4047 109.995 90.7432 109.529C91.0779 109.076 91.5383 108.689 92.1244 108.367ZM85.2595 111.566C85.8557 111.365 86.35 111.354 86.7424 111.532C87.1287 111.724 87.4273 112.131 87.6381 112.755L89.0681 116.989L90.4373 116.526L90.914 117.937L89.5447 118.4L90.2526 120.496L88.5675 121.267L87.7982 118.99L86.2334 119.519L85.7567 118.107L87.3216 117.579L86.0001 113.667C85.9152 113.415 85.7995 113.257 85.6531 113.192C85.5006 113.14 85.3125 113.152 85.089 113.227L84.1948 113.529L83.7086 112.09L85.2595 111.566ZM79.3897 112.712C79.9043 112.63 80.3748 112.616 80.8011 112.667C81.2193 112.73 81.5909 112.846 81.9161 113.013C82.2332 113.192 82.4981 113.418 82.7109 113.693C82.9156 113.979 83.0528 114.311 83.1227 114.688L81.3311 114.972C81.2573 114.695 81.1386 114.48 80.9749 114.327C80.8112 114.174 80.6108 114.071 80.3736 114.019C80.1282 113.979 79.855 113.982 79.554 114.03C79.0879 114.104 78.7514 114.242 78.5446 114.444C78.3296 114.657 78.2459 114.914 78.2937 115.215C78.3322 115.458 78.4198 115.633 78.5563 115.741C78.6847 115.86 78.8757 115.934 79.1292 115.964C79.3746 116.005 79.7009 116.022 80.1083 116.018C80.784 116.01 81.3534 116.054 81.8166 116.15C82.2813 116.255 82.6443 116.441 82.9057 116.708C83.1671 116.976 83.3371 117.357 83.4157 117.852C83.4927 118.337 83.4287 118.781 83.2235 119.182C83.0086 119.584 82.6787 119.92 82.2337 120.19C81.7903 120.469 81.253 120.659 80.6218 120.759C80.0004 120.858 79.446 120.846 78.9589 120.724C78.4717 120.603 78.0733 120.382 77.7638 120.063C77.4447 119.745 77.2376 119.35 77.1427 118.877L78.9342 118.593C78.9743 118.845 79.0697 119.039 79.2206 119.175C79.3618 119.312 79.5405 119.403 79.7568 119.448C79.9633 119.495 80.1976 119.497 80.4598 119.456C80.8676 119.391 81.1742 119.253 81.3795 119.041C81.5864 118.839 81.6667 118.592 81.6204 118.301C81.5865 118.087 81.5005 117.922 81.3625 117.804C81.2162 117.698 81.001 117.628 80.7167 117.593C80.4325 117.559 80.0722 117.546 79.6357 117.556C79.0004 117.567 78.4657 117.523 78.0317 117.422C77.5879 117.323 77.2395 117.135 76.9863 116.856C76.7233 116.58 76.551 116.184 76.4694 115.669C76.3877 115.155 76.4584 114.69 76.6814 114.277C76.8963 113.874 77.2359 113.537 77.7003 113.264C78.1663 113.001 78.7294 112.817 79.3897 112.712Z" fill="#1462FF"/>
<rect x="50.8787" y="50.8788" width="44.2424" height="44.2424" rx="22.1212" fill="#1462FF"/>
<rect x="50.8787" y="50.8788" width="44.2424" height="44.2424" rx="22.1212" stroke="#FAFAF7" stroke-width="1.47475"/>
<path d="M70.5381 66.9896L79.1224 66.9896L79.1224 75.5738" stroke="#FAFAF7" stroke-width="1.5" stroke-miterlimit="10" stroke-linecap="round" stroke-linejoin="round"/>
<path d="M67.1016 79.0104L79.0022 67.1098" stroke="#FAFAF7" stroke-width="1.5" stroke-miterlimit="10" stroke-linecap="round" stroke-linejoin="round"/>
</svg>
