<svg width="16" height="17" viewBox="0 0 16 17" fill="none" xmlns="http://www.w3.org/2000/svg">
<path d="M9.15339 2.84001L10.3267 5.18668C10.4867 5.51334 10.9134 5.82668 11.2734 5.88668L13.4001 6.24001C14.7601 6.46668 15.0801 7.45334 14.1001 8.42668L12.4467 10.08C12.1667 10.36 12.0134 10.9 12.1001 11.2867L12.5734 13.3333C12.9467 14.9533 12.0867 15.58 10.6534 14.7333L8.66006 13.5533C8.30006 13.34 7.70673 13.34 7.34006 13.5533L5.34673 14.7333C3.92006 15.58 3.05339 14.9467 3.42673 13.3333L3.90006 11.2867C3.98673 10.9 3.83339 10.36 3.55339 10.08L1.90006 8.42668C0.926728 7.45334 1.24006 6.46668 2.60006 6.24001L4.72673 5.88668C5.08006 5.82668 5.50673 5.51334 5.66673 5.18668L6.84006 2.84001C7.48006 1.56668 8.52006 1.56668 9.15339 2.84001Z" fill="#FF954E"/>
</svg>
