<svg width="16" height="17" viewBox="0 0 16 17" fill="none" xmlns="http://www.w3.org/2000/svg">
<path d="M12.7466 10.46L12.96 10.8934C13.0666 11.1067 13.34 11.3067 13.5666 11.3467L13.8533 11.3934C14.7266 11.54 14.9266 12.18 14.3066 12.8067L14.04 13.0734C13.86 13.2534 13.7666 13.6 13.82 13.8534L13.8533 14.0134C14.0933 15.0667 13.5333 15.4734 12.62 14.92L12.4266 14.8C12.1933 14.66 11.8066 14.66 11.5733 14.8L11.38 14.92C10.46 15.4734 9.90665 15.0667 10.1466 14.0134L10.18 13.8534C10.2333 13.6067 10.14 13.2534 9.95998 13.0734L9.69332 12.8067C9.07332 12.1734 9.27332 11.54 10.1466 11.3934L10.4333 11.3467C10.6666 11.3067 10.9333 11.1067 11.04 10.8934L11.2533 10.46C11.6666 9.62669 12.3333 9.62669 12.7466 10.46Z" fill="#1462FF"/>
<path d="M10.7934 1.83331H5.20671C2.78004 1.83331 1.33337 3.27998 1.33337 5.70665V11.2933C1.33337 13.72 2.78004 15.1666 5.20671 15.1666H8.72671C8.96004 15.1666 9.12671 14.9266 9.10004 14.6933C9.07337 14.44 9.08671 14.14 9.16671 13.7933C9.18004 13.7466 9.16671 13.6933 9.12671 13.6533L8.98004 13.5066C8.41337 12.9333 8.20671 12.24 8.40671 11.6066C8.61337 10.98 9.18671 10.54 9.98004 10.4066L10.18 10.3733L10.36 10.0133C10.7267 9.26665 11.3267 8.83331 12 8.83331C12.6734 8.83331 13.2734 9.26665 13.64 10.0133L13.74 10.22C13.7867 10.32 13.88 10.3866 13.9867 10.4066C14.0467 10.42 14.1067 10.4333 14.1667 10.4466C14.4 10.5066 14.6667 10.32 14.6667 10.0733V5.70665C14.6667 3.27998 13.22 1.83331 10.7934 1.83331ZM10.84 6.47331L9.30004 8.45998C9.10671 8.70665 8.83337 8.86665 8.52004 8.89998C8.21337 8.93998 7.90004 8.85331 7.66004 8.65998L6.44004 7.71331C6.39337 7.67331 6.34004 7.67331 6.31337 7.67998C6.28671 7.67998 6.24004 7.69331 6.20004 7.74665L4.61337 9.80665C4.51337 9.93331 4.36671 9.99998 4.21337 9.99998C4.10671 9.99998 4.00004 9.96665 3.90671 9.89331C3.68671 9.72665 3.64671 9.41331 3.81337 9.19331L5.40004 7.13331C5.59337 6.88665 5.86671 6.72665 6.18004 6.68665C6.49337 6.64665 6.80004 6.73331 7.04671 6.92665L8.26671 7.88665C8.31337 7.92665 8.36004 7.91998 8.39337 7.91998C8.42004 7.91998 8.46671 7.90665 8.50671 7.85331L10.0467 5.86665C10.2134 5.64665 10.5267 5.60665 10.7467 5.77998C10.9734 5.94665 11.0067 6.25998 10.84 6.47331Z" fill="#1462FF"/>
</svg>
